<svg xmlns="http://www.w3.org/2000/svg" width="24" height="24" viewBox="0 0 24 24" fill="none">
  <path d="M11.4326 5.20144C11.7624 4.93296 12.2386 4.93275 12.5683 5.20144L12.6367 5.26394L17.3535 9.98073L17.4179 10.0589C17.5461 10.2529 17.5242 10.5169 17.3535 10.6878C17.1828 10.8584 16.9196 10.88 16.7256 10.7522L16.6465 10.6878L12.5 6.54128V19.3342C12.5 19.6104 12.2761 19.8342 12 19.8342C11.7238 19.8342 11.5 19.6104 11.5 19.3342V6.54128L7.3535 10.6878C7.15823 10.883 6.84172 10.883 6.64646 10.6878C6.45141 10.4925 6.45127 10.1759 6.64646 9.98073L11.3642 5.26394L11.4326 5.20144Z" fill="#767676"/>
</svg>