<svg xmlns="http://www.w3.org/2000/svg" width="24" height="24" viewBox="0 0 24 24" fill="none">
  <g opacity="0.8">
    <path fill-rule="evenodd" clip-rule="evenodd" d="M16.4889 14.0137C18.2978 14.1454 19.9059 15.2509 20.6696 16.917L21.0514 17.75C21.9338 19.6751 20.5988 21.8587 18.527 21.9932L18.3249 22H5.67447L5.47232 21.9932C3.46775 21.8629 2.1524 19.8141 2.86881 17.9375L2.94791 17.75L3.32974 16.917C4.09334 15.251 5.70164 14.1455 7.51041 14.0137L7.87466 14H16.1247L16.4889 14.0137ZM7.87466 15.5996C6.62838 15.5998 5.48897 16.2813 4.89517 17.3623L4.78384 17.583L4.40201 18.417C3.97745 19.344 4.65487 20.4 5.67447 20.4004H18.3249C19.281 20.4002 19.9366 19.4718 19.6647 18.5918L19.5973 18.417L19.2155 17.583C18.6615 16.3747 17.4539 15.5997 16.1247 15.5996H7.87466Z" fill="black"/>
    <path fill-rule="evenodd" clip-rule="evenodd" d="M11.9997 2C14.7611 2 16.9997 4.23858 16.9997 7C16.9997 9.76142 14.7611 12 11.9997 12C9.2384 11.9998 6.99966 9.76131 6.99966 7C6.99966 4.23869 9.2384 2.00019 11.9997 2ZM11.9997 3.59961C10.1221 3.5998 8.59927 5.12235 8.59927 7C8.59927 8.87765 10.1221 10.4002 11.9997 10.4004C13.8774 10.4004 15.4001 8.87777 15.4001 7C15.4001 5.12223 13.8774 3.59961 11.9997 3.59961Z" fill="black"/>
  </g>
</svg>