<svg xmlns="http://www.w3.org/2000/svg" width="18" height="20" viewBox="0 0 18 20" fill="none">
  <path
    d="M9 0.700195C13.1237 0.700195 16.4668 4.04327 16.4668 8.16699V10.4512C17.265 10.943 17.7996 11.8234 17.7998 12.833L17.7852 13.1191C17.6418 14.5311 16.4498 15.6328 15 15.6328H12.7969C12.7269 17.67 11.0542 19.2998 9 19.2998C6.94578 19.2998 5.2731 17.67 5.20312 15.6328H3C1.55021 15.6328 0.358181 14.5311 0.214844 13.1191L0.200195 12.833C0.200356 11.8234 0.735035 10.943 1.5332 10.4512V8.16699C1.5332 4.04327 4.87627 0.700195 9 0.700195ZM6.80664 15.6328C6.87541 16.7859 7.82962 17.7002 9 17.7002C10.1704 17.7002 11.1246 16.7859 11.1934 15.6328H6.80664ZM9 2.2998C5.75993 2.2998 3.13281 4.92692 3.13281 8.16699V11.5146L2.59961 11.7031C2.1318 11.8689 1.79994 12.3134 1.7998 12.833L1.80664 12.9561C1.86827 13.561 2.37881 14.0332 3 14.0332H15C15.6212 14.0332 16.1317 13.561 16.1934 12.9561L16.2002 12.833C16.2001 12.3134 15.8682 11.8689 15.4004 11.7031L14.8672 11.5146V8.16699C14.8672 4.92692 12.2401 2.2998 9 2.2998Z"
    fill="#474C98"
  />
</svg>
