<svg xmlns="http://www.w3.org/2000/svg" width="24" height="24" viewBox="0 0 24 24" fill="none">
  <path d="M9.6416 16.1074C10.7377 16.1074 11.6258 16.9958 11.626 18.0918C11.626 19.1879 10.7377 20.0771 9.6416 20.0771C8.54544 20.0771 7.65723 19.188 7.65723 18.0918C7.65737 16.9958 8.54553 16.1074 9.6416 16.1074ZM15.5957 16.1074C16.6918 16.1074 17.5809 16.9958 17.5811 18.0918C17.5811 19.188 16.6919 20.0771 15.5957 20.0771C14.4996 20.0771 13.6113 19.1879 13.6113 18.0918C13.6115 16.9958 14.4997 16.1075 15.5957 16.1074ZM15.5957 17.4971C15.267 17.4972 15.0011 17.7631 15.001 18.0918C15.001 18.4206 15.2669 18.6874 15.5957 18.6875C15.9246 18.6875 16.1904 18.4206 16.1904 18.0918C16.1903 17.7631 15.9245 17.4971 15.5957 17.4971ZM9.6416 17.4971C9.31284 17.4971 9.04702 17.7631 9.04688 18.0918C9.04688 18.4206 9.31275 18.6875 9.6416 18.6875C9.97043 18.6875 10.2363 18.4206 10.2363 18.0918C10.2362 17.7631 9.97034 17.4971 9.6416 17.4971ZM4.35449 4C5.16418 4.00017 5.85998 4.57576 6.01172 5.37109L7.68945 14.1777C7.71618 14.318 7.83865 14.4198 7.98145 14.4199H16.7949C16.9329 14.4198 17.0523 14.3247 17.084 14.1904L18.6025 7.74023L18.6094 7.6709C18.6091 7.51146 18.4804 7.37411 18.3125 7.37402H8.64941C8.26578 7.37402 7.95413 7.06332 7.9541 6.67969C7.9541 6.29603 8.26576 5.98438 8.64941 5.98438H18.3125C19.3325 5.98447 20.1026 6.8772 19.9893 7.86133L19.9551 8.05859L18.4375 14.5088C18.2582 15.2707 17.5776 15.8095 16.7949 15.8096H7.98145C7.17166 15.8094 6.47584 15.234 6.32422 14.4385L4.64648 5.63184C4.61968 5.49164 4.49722 5.38981 4.35449 5.38965H2.69531C2.31181 5.38965 2.00024 5.07876 2 4.69531C2 4.31166 2.31166 4 2.69531 4H4.35449Z" fill="black"/>
</svg>