<svg xmlns="http://www.w3.org/2000/svg" width="24" height="24" viewBox="0 0 24 24" fill="none">
  <path fill-rule="evenodd" clip-rule="evenodd" d="M13.0526 5C13.9247 5 14.6316 5.69473 14.6316 6.55172V8.10345H17.2632L17.5068 8.10951C20.0097 8.23413 22 10.2679 22 12.7586V16.8966C22 17.7535 21.2931 18.4483 20.4211 18.4483H19.2995C19.0656 19.3403 18.2439 20 17.2632 20C16.2824 20 15.4607 19.3403 15.2268 18.4483H8.77323C8.53931 19.3403 7.71759 20 6.73684 20C5.7561 20 4.93437 19.3403 4.70045 18.4483H3.57895C2.76141 18.4483 2.08906 17.8376 2.00822 17.0552L2 16.8966V13.4173C2 13.1316 2.23564 12.9001 2.52632 12.9001C2.78053 12.9001 2.99314 13.0767 3.04235 13.3122L3.05263 13.4173V16.8966L3.06291 17.0006C3.11189 17.2364 3.32451 17.4138 3.57895 17.4138H4.70045C4.93437 16.5217 5.7561 15.8621 6.73684 15.8621C7.71759 15.8621 8.53931 16.5217 8.77323 17.4138H13.5789V6.55172C13.5789 6.26606 13.3433 6.03448 13.0526 6.03448H2.52632C2.23564 6.03448 2 5.80291 2 5.51724C2 5.23158 2.23564 5 2.52632 5H13.0526ZM6.73684 16.8966C6.15549 16.8966 5.68421 17.3597 5.68421 17.931C5.68421 18.5024 6.15549 18.9655 6.73684 18.9655C7.31819 18.9655 7.78947 18.5024 7.78947 17.931C7.78947 17.3597 7.31819 16.8966 6.73684 16.8966ZM17.2632 16.8966C16.6818 16.8966 16.2105 17.3597 16.2105 17.931C16.2105 18.5024 16.6818 18.9655 17.2632 18.9655C17.8445 18.9655 18.3158 18.5024 18.3158 17.931C18.3158 17.3597 17.8445 16.8966 17.2632 16.8966ZM14.6316 17.4138H15.2268C15.4607 16.5217 16.2824 15.8621 17.2632 15.8621C18.2439 15.8621 19.0656 16.5217 19.2995 17.4138H20.4211C20.7117 17.4138 20.9474 17.1822 20.9474 16.8966V13.2759H18.3158C17.4438 13.2759 16.7368 12.5811 16.7368 11.7241C16.7368 10.8671 17.4438 10.1724 18.3158 10.1724H19.8403C19.2178 9.57344 18.3807 9.18912 17.4523 9.14298L17.2632 9.13793H14.6316V17.4138ZM18.3158 11.2069C18.0251 11.2069 17.7895 11.4385 17.7895 11.7241C17.7895 12.0098 18.0251 12.2414 18.3158 12.2414H20.9093C20.8561 11.876 20.7472 11.5285 20.5917 11.2069H18.3158Z" fill="black"/>
  <path d="M10.082 8.46484H12.6064V9.2168H11.0098V9.85645H12.4746V10.6084H11.0098V11.248H12.6016V12H10.082V8.46484Z" fill="#5055B1"/>
  <path d="M7.06934 8.46484H9.59375V9.2168H7.99707V9.85645H9.46191V10.6084H7.99707V11.248H9.58887V12H7.06934V8.46484Z" fill="#5055B1"/>
  <path d="M3.83691 8.46484H5.34082C5.60286 8.46484 5.83236 8.51286 6.0293 8.60889C6.22786 8.70492 6.38086 8.84326 6.48828 9.02393C6.5957 9.20296 6.64941 9.41536 6.64941 9.66113C6.64941 9.90202 6.59652 10.1087 6.49072 10.2812C6.38656 10.4538 6.23763 10.5856 6.04395 10.6768L6.7666 12H5.75586L5.12842 10.8232H4.76465V12H3.83691V8.46484ZM5.12598 10.0957C5.30664 10.0957 5.44336 10.0607 5.53613 9.99072C5.63053 9.92074 5.67773 9.81087 5.67773 9.66113C5.67773 9.50814 5.63053 9.39421 5.53613 9.31934C5.44173 9.24447 5.30501 9.20703 5.12598 9.20703H4.76465V10.0957H5.12598Z" fill="#5055B1"/>
  <path d="M1 8.46484H3.46582V9.2168H1.92773V9.85645H3.30957V10.6084H1.92773V12H1V8.46484Z" fill="#5055B1"/>
</svg>