<svg width="37" height="36" viewBox="0 0 37 36" fill="none" xmlns="http://www.w3.org/2000/svg">
<path d="M26.3621 12H10.6378C7.25327 14.7053 3.5 18.9896 3.5 23.1394C3.5 27.7542 7.52985 31.5 12.5079 31.5H24.5052C29.4701 31.5 33.5 27.7542 33.5 23.1394C33.5 18.9896 29.7467 14.7053 26.3621 12ZM24.255 22.3192H22.7274L21.9504 25.2081C21.8714 25.5141 21.5816 25.7345 21.2524 25.7467C20.91 25.7467 20.6071 25.5753 20.4886 25.2815L18.5132 20.4953L16.5377 25.2815C16.4192 25.5631 16.1295 25.7467 15.8134 25.7467C15.8002 25.7467 15.7871 25.7467 15.7608 25.7467C15.4183 25.7222 15.1418 25.5019 15.0628 25.2081L14.2857 22.3192H12.7581C12.3367 22.3192 11.9811 22.0009 11.9811 21.597C11.9811 21.193 12.3235 20.8748 12.7581 20.8748H13.9039L13.3112 18.6714C13.2059 18.2919 13.4561 17.9002 13.8775 17.8023C14.2857 17.7043 14.7072 17.9369 14.8126 18.3286L15.9714 22.6497L17.7888 18.2429C18.0127 17.6921 19.0004 17.6921 19.2375 18.2429L21.0549 22.6497L22.2138 18.3286C22.3191 17.9492 22.7405 17.7043 23.1488 17.8023C23.5702 17.9002 23.8204 18.2919 23.7151 18.6714L23.1225 20.8748H24.2682C24.6896 20.8748 25.0452 21.193 25.0452 21.597C25.0452 22.0009 24.7028 22.3192 24.2682 22.3192H24.255Z" fill="#5055B1"/>
<path d="M10.8696 10.5H26.1432L28.9063 6.11084C29.2261 5.35714 28.6888 4.5 27.8829 4.5H9.11708C8.31119 4.5 7.77394 5.35714 8.09374 6.11084L10.8568 10.5H10.8696Z" fill="#5055B1"/>
</svg>
