<svg xmlns="http://www.w3.org/2000/svg" width="20" height="18" viewBox="0 0 20 18" fill="current">
  <path d="M15.2414 5H4.75855C2.50218 6.80352 0 9.65976 0 12.4262C0 15.5028 2.68656 18 6.00526 18H14.0035C17.3134 18 20 15.5028 20 12.4262C20 9.65976 17.4978 6.80352 15.2414 5ZM13.8367 11.8795H12.8182L12.3002 13.8054C12.2476 14.0094 12.0544 14.1563 11.8349 14.1645C11.6067 14.1645 11.4047 14.0502 11.3257 13.8544L10.0088 10.6635L8.69183 13.8544C8.61281 14.0421 8.41965 14.1645 8.20893 14.1645C8.20015 14.1645 8.19139 14.1645 8.17383 14.1645C7.94556 14.1481 7.76119 14.0013 7.70852 13.8054L7.19049 11.8795H6.17208C5.89113 11.8795 5.65406 11.6673 5.65406 11.398C5.65406 11.1287 5.88235 10.9165 6.17208 10.9165H6.9359L6.54081 9.44758C6.47057 9.1946 6.63738 8.93346 6.91833 8.86817C7.1905 8.80289 7.47146 8.95794 7.5417 9.21908L8.31429 12.0998L9.52588 9.16196C9.67513 8.79473 10.3336 8.79473 10.4916 9.16196L11.7032 12.0998L12.4758 9.21908C12.5461 8.9661 12.827 8.80289 13.0992 8.86817C13.3801 8.93346 13.547 9.1946 13.4767 9.44758L13.0816 10.9165H13.8455C14.1264 10.9165 14.3635 11.1287 14.3635 11.398C14.3635 11.6673 14.1352 11.8795 13.8455 11.8795H13.8367Z" fill="current"/>
  <path d="M4.91305 4H15.0955L16.9375 1.07389C17.1507 0.571428 16.7925 0 16.2553 0H3.74472C3.20746 0 2.84929 0.571428 3.06249 1.07389L4.90451 4H4.91305Z" fill="current"/>
</svg>