<svg width="40" height="40" viewBox="0 0 40 40" fill="none" xmlns="http://www.w3.org/2000/svg">
<rect width="40" height="40" rx="20" fill="#5055B1"/>
<path d="M29.9011 27.9247C29.1169 28.1207 28.3017 28.2703 27.4556 28.3735C26.6198 28.487 25.8098 28.5438 25.0256 28.5438C24.097 28.5438 23.2818 28.4561 22.5802 28.2807C21.8888 28.1156 21.3781 27.8524 21.0479 27.4913C20.7487 27.1611 20.5371 26.7845 20.4133 26.3614C20.2895 25.9384 20.2276 25.4586 20.2276 24.922C20.2276 24.499 20.2637 23.9521 20.3359 23.2814L22.1932 23.4671C22.1313 24.0553 22.1004 24.5505 22.1004 24.953C22.1004 25.6546 22.2035 26.1086 22.4099 26.315C22.5647 26.4801 22.8691 26.6039 23.3231 26.6865C23.7771 26.7793 24.3291 26.8258 24.9792 26.8258C25.7324 26.8258 26.5424 26.769 27.4092 26.6555C28.2863 26.542 29.1169 26.3769 29.9011 26.1602V27.9247ZM29.5141 14.4746V17.663H31V19.5203H29.5141V24.1017H27.6568V14.4746H29.5141ZM18.9429 14.877H23.7565C24.3756 14.877 24.9018 15.0628 25.3352 15.4342C25.7686 15.7954 25.9904 16.3164 26.0007 16.9975C25.9698 18.0396 25.7015 18.9322 25.1959 19.6751C24.7006 20.418 23.9164 21.0268 22.8433 21.5015C21.7702 21.9761 20.3669 22.3166 18.6334 22.523L18.4167 20.8204C19.8406 20.6553 20.9653 20.4129 21.7908 20.093C22.6163 19.7628 23.2044 19.3501 23.5553 18.8548C23.9164 18.3595 24.1125 17.7404 24.1434 16.9975C24.1331 16.8221 24.1021 16.7085 24.0505 16.657C24.0093 16.6054 23.9112 16.5796 23.7565 16.5796H18.9429V14.877Z" fill="white"/>
<path d="M16.7475 27.9247C15.9633 28.1207 15.1482 28.2703 14.3021 28.3735C13.4663 28.487 12.6563 28.5438 11.8721 28.5438C10.9434 28.5438 10.1283 28.4561 9.4266 28.2807C8.73527 28.1156 8.22451 27.8524 7.89432 27.4913C7.59508 27.1611 7.38356 26.7845 7.25973 26.3614C7.13591 25.9384 7.074 25.4586 7.074 24.922C7.074 24.499 7.11012 23.9521 7.18235 23.2814L9.03966 23.4671C8.97775 24.0553 8.9468 24.5505 8.9468 24.953C8.9468 25.6546 9.04998 26.1086 9.25635 26.315C9.41113 26.4801 9.71552 26.6039 10.1695 26.6865C10.6235 26.7793 11.1756 26.8258 11.8256 26.8258C12.5789 26.8258 13.3889 26.769 14.2556 26.6555C15.1327 26.542 15.9633 26.3769 16.7475 26.1602V27.9247ZM16.3606 14.4746V24.1017H14.5033V14.4746H16.3606ZM10.2314 23.7767C10.51 23.4774 10.7783 23.0286 11.0363 22.4301C11.3046 21.8316 11.4387 21.2693 11.4387 20.7431C11.4387 20.0724 11.2117 19.5822 10.7577 19.2727C10.5926 20.0672 10.2366 20.7018 9.68972 21.1764C9.14285 21.6511 8.36381 21.8884 7.3526 21.8884C6.87795 21.8884 6.46006 21.7955 6.09891 21.6098C5.74809 21.4241 5.47465 21.1764 5.2786 20.8669C5.09287 20.547 5 20.2065 5 19.8453C5 19.4532 5.11866 19.0715 5.35599 18.7C5.59331 18.3285 5.95445 18.0087 6.43942 17.7404C6.9347 17.4721 7.54349 17.2967 8.26578 17.2142L9.00871 17.1522V14.877H10.866V17.338C11.7225 17.565 12.3416 17.9829 12.7233 18.5917C13.1051 19.2004 13.296 19.9124 13.296 20.7276C13.296 21.2744 13.2238 21.8213 13.0793 22.3682C12.9349 22.9048 12.7543 23.3742 12.5376 23.7767H10.2314ZM7.36808 20.1859C7.87368 20.1859 8.2503 20.0827 8.49794 19.8763C8.74559 19.6596 8.90036 19.3294 8.96227 18.8857L8.48247 18.9167C7.96655 18.9683 7.56413 19.0869 7.27521 19.2727C6.9863 19.4584 6.84184 19.6441 6.84184 19.8299C6.84184 19.9331 6.88827 20.0208 6.98114 20.093C7.074 20.1549 7.20298 20.1859 7.36808 20.1859Z" fill="white"/>
<path d="M33.5714 16.0286C33.5714 15.6972 33.3028 15.4286 32.9714 15.4286H31.4286C31.1919 15.4286 31 15.2367 31 15C31 14.7633 31.1919 14.5714 31.4286 14.5714H32.9714C33.3028 14.5714 33.5714 14.3028 33.5714 13.9714V12.4286C33.5714 12.1919 33.7633 12 34 12C34.2367 12 34.4286 12.1919 34.4286 12.4286V13.9714C34.4286 14.3028 34.6972 14.5714 35.0286 14.5714H36.5714C36.8081 14.5714 37 14.7633 37 15C37 15.2367 36.8081 15.4286 36.5714 15.4286H35.0286C34.6972 15.4286 34.4286 15.6972 34.4286 16.0286V17.5714C34.4286 17.8081 34.2367 18 34 18C33.7633 18 33.5714 17.8081 33.5714 17.5714V16.0286Z" fill="white"/>
</svg>
