<svg width="375" height="44" viewBox="0 0 375 44" fill="none" xmlns="http://www.w3.org/2000/svg">
<g clip-path="url(#clip0_3397_13858)">
<rect width="375" height="44" fill="#F7F7F7"/>
<path d="M334.856 14L335.312 14.0049C344.848 14.2023 352 20.5002 355.465 29.291C358.834 37.105 366.2 42.9722 375 44H0V14H334.856Z" fill="#EC1F2D"/>
<path d="M301.053 24.0059V25.3867H293.67V24.0059H296.5V22.7617H298.236V24.0059H301.053ZM297.361 25.7832C299.166 25.7969 300.424 26.7402 300.424 28.0938C300.424 29.4609 299.166 30.3906 297.361 30.3906C295.557 30.3906 294.271 29.4609 294.271 28.0938C294.271 26.7402 295.557 25.7969 297.361 25.7832ZM297.361 27.123C296.527 27.123 295.967 27.4512 295.98 28.0938C295.967 28.7363 296.527 29.0508 297.361 29.0508C298.195 29.0508 298.77 28.7363 298.77 28.0938C298.77 27.4512 298.195 27.123 297.361 27.123ZM303.541 22.8164V26.1523H305.223V27.5879H303.541V31.5254H301.791V22.8164H303.541ZM300.41 31.0332C300.41 32.3047 301.723 33.5625 304.375 33.8906L303.76 35.2031C301.771 34.9434 300.314 34.1504 299.562 33.043C298.804 34.1504 297.368 34.9434 295.379 35.2031L294.764 33.8906C297.389 33.5625 298.688 32.3047 298.688 31.0332V30.8555H300.41V31.0332ZM315.914 29.2422V30.623H307.109V23.7324H315.818V25.1406H308.887V26.4531H315.531V27.8203H308.887V29.2422H315.914ZM317.158 32.3867V33.8086H305.77V32.3867H317.158ZM328.561 22.8301V30.5684H326.906V27.3555H325.826V30.4863H324.199V23.0488H325.826V25.9473H326.906V22.8301H328.561ZM328.561 31.0742V35.2578H326.824V32.4688H319.961V31.0742H328.561ZM323.105 23.6504V27.4648H320.057V28.668C321.417 28.6611 322.429 28.5996 323.611 28.3809L323.762 29.7754C322.312 30.0215 321.082 30.0488 319.236 30.0488H318.375V26.1797H321.424V25.0312H318.361V23.6504H323.105ZM336.518 24.457C336.518 26.2754 338.131 28.2305 340.947 28.709L340.182 30.1582C338.015 29.7275 336.401 28.5107 335.602 26.9043C334.774 28.4971 333.161 29.7207 331.008 30.1582L330.256 28.709C333.018 28.2168 334.645 26.2617 334.658 24.457V23.5547H336.518V24.457ZM341.357 32.291V33.7266H329.969V32.291H341.357Z" fill="white"/>
<path d="M259.856 14L260.312 14.0049C269.848 14.2023 277 20.5002 280.465 29.291C283.834 37.105 291.2 42.9722 300 44H0V14H259.856Z" fill="#05BBBF"/>
<path d="M233.202 28.7773C233.12 28.2578 232.655 27.916 231.985 27.916C231.329 27.916 230.823 28.2305 230.837 28.6816C230.823 29.0098 231.097 29.2695 231.794 29.4199L233.12 29.6934C234.556 29.9941 235.253 30.6367 235.267 31.7031C235.253 33.166 233.94 34.1504 231.972 34.1504C229.962 34.1504 228.786 33.248 228.622 31.7988H230.659C230.755 32.3867 231.233 32.6875 231.972 32.6875C232.71 32.6875 233.202 32.3867 233.202 31.9082C233.202 31.5254 232.888 31.293 232.19 31.1426L230.96 30.8965C229.552 30.623 228.813 29.8848 228.827 28.791C228.813 27.3691 230.044 26.4805 231.958 26.4805C233.831 26.4805 234.993 27.3691 235.103 28.7773H233.202ZM236.155 31.9219C236.155 30.2676 237.495 29.7207 238.917 29.6387C239.45 29.6045 240.448 29.5566 240.763 29.543V28.9414C240.749 28.3262 240.325 27.957 239.573 27.957C238.89 27.957 238.452 28.2715 238.343 28.7773H236.415C236.538 27.4922 237.659 26.4805 239.628 26.4805C241.241 26.4805 242.772 27.2051 242.772 28.9961V34H240.858V32.9746H240.804C240.435 33.6582 239.737 34.1367 238.63 34.1367C237.208 34.1367 236.155 33.3984 236.155 31.9219ZM238.097 31.8672C238.097 32.4414 238.562 32.7422 239.204 32.7422C240.12 32.7422 240.776 32.127 240.763 31.3477V30.8008C240.455 30.8145 239.594 30.8623 239.245 30.8965C238.548 30.9648 238.097 31.293 238.097 31.8672ZM244.317 34V26.5762H246.245V27.875H246.327C246.642 27.0137 247.394 26.4805 248.392 26.4805C249.417 26.4805 250.169 27.0137 250.415 27.875H250.483C250.798 27.0273 251.632 26.4805 252.726 26.4805C254.106 26.4805 255.063 27.3965 255.063 29.0098V34H253.04V29.4062C253.04 28.5586 252.548 28.1484 251.878 28.1484C251.112 28.1484 250.675 28.6816 250.675 29.4609V34H248.706V29.3516C248.706 28.6133 248.241 28.1484 247.558 28.1484C246.874 28.1484 246.341 28.6953 246.341 29.543V34H244.317Z" fill="white"/>
<path d="M182.856 14L183.312 14.0049C192.848 14.2023 200 20.5002 203.465 29.291C206.834 37.105 214.2 42.9722 223 44H0V14H182.856Z" fill="#314FB9"/>
<path d="M149.519 34.1504C147.249 34.1504 145.854 32.6738 145.854 30.3223C145.854 28.0254 147.263 26.4805 149.437 26.4805C151.392 26.4805 152.923 27.7109 152.923 30.2402V30.8145H147.851C147.851 31.9355 148.521 32.6328 149.56 32.6328C150.243 32.6328 150.735 32.332 150.94 31.8809H152.868C152.581 33.248 151.351 34.1504 149.519 34.1504ZM147.851 29.543H151.009C151.009 28.6406 150.38 27.998 149.478 27.998C148.548 27.998 147.885 28.6885 147.851 29.543ZM154.235 34V24.1016H158.173C160.36 24.1016 161.454 25.1543 161.454 26.6445C161.454 27.8066 160.702 28.5312 159.677 28.7637V28.8594C160.798 28.9141 161.851 29.8027 161.851 31.2656C161.851 32.8379 160.675 34 158.433 34H154.235ZM158.022 32.3047C159.212 32.3047 159.718 31.8125 159.718 31.0742C159.718 30.2402 159.089 29.6523 158.077 29.6523H156.286V32.3047H158.022ZM157.872 28.2441C158.733 28.2441 159.376 27.7656 159.376 26.9727C159.376 26.2617 158.856 25.7695 157.913 25.7695H156.286V28.2441H157.872ZM166.444 34.1504C164.202 34.1504 162.808 32.6055 162.808 30.3086C162.808 28.0117 164.202 26.4805 166.444 26.4805C168.687 26.4805 170.095 28.0117 170.095 30.3086C170.095 32.6055 168.687 34.1504 166.444 34.1504ZM166.458 32.5781C167.497 32.5781 168.03 31.6074 168.03 30.3086C168.03 28.9961 167.497 28.0254 166.458 28.0254C165.405 28.0254 164.858 28.9961 164.858 30.3086C164.858 31.6074 165.405 32.5781 166.458 32.5781ZM174.702 34.1504C172.46 34.1504 171.065 32.6055 171.065 30.3086C171.065 28.0117 172.46 26.4805 174.702 26.4805C176.944 26.4805 178.353 28.0117 178.353 30.3086C178.353 32.6055 176.944 34.1504 174.702 34.1504ZM174.716 32.5781C175.755 32.5781 176.288 31.6074 176.288 30.3086C176.288 28.9961 175.755 28.0254 174.716 28.0254C173.663 28.0254 173.116 28.9961 173.116 30.3086C173.116 31.6074 173.663 32.5781 174.716 32.5781ZM179.624 34V24.1016H181.647V29.4199H181.757L184.163 26.5762H186.487L183.726 29.7891L186.638 34H184.259L182.222 30.9785L181.647 31.6211V34H179.624Z" fill="white"/>
<path d="M93.1911 0.00751953C106.368 0.304347 116.249 9.77178 121.036 22.9872C125.691 34.7345 135.869 43.5549 148.028 45.1H0V0H92.5617L93.1911 0.00751953Z" fill="white"/>
<g clip-path="url(#clip1_3397_13858)">
<path d="M46.813 32.5718C45.5315 32.5718 44.4065 33.0229 43.6435 33.8821C42.7728 34.8273 42.2935 36.3096 42.2935 38.0603C42.2935 39.811 42.7728 41.2933 43.6435 42.2384C44.4065 43.0977 45.5315 43.5596 46.813 43.5596C48.0945 43.5596 49.2293 43.087 49.9924 42.2384C50.8435 41.2933 51.3228 39.811 51.3228 38.0603C51.3228 36.3096 50.8435 34.8273 49.9924 33.8821C49.2293 33.0336 48.0945 32.5718 46.813 32.5718ZM48.6424 41.0892C48.2217 41.6692 47.5663 42.0129 46.813 42.0129C46.0598 42.0129 45.3945 41.6799 44.9935 41.0892C44.5239 40.4555 44.2793 39.3921 44.2793 38.0603C44.2793 36.7284 44.5239 35.6759 44.9935 35.0314C45.3945 34.4514 46.0695 34.1292 46.813 34.1292C47.5565 34.1292 48.2315 34.4514 48.6424 35.0314C49.1119 35.6866 49.3467 36.7284 49.3467 38.0603C49.3467 39.3921 49.1022 40.4555 48.6424 41.0892Z" fill="#314FB9"/>
<path d="M71.5431 33.8821C70.7801 33.0336 69.6453 32.5718 68.3638 32.5718C67.0823 32.5718 65.9573 33.0229 65.1942 33.8821C64.3334 34.8273 63.854 36.3096 63.854 38.0603C63.854 39.811 64.3334 41.2933 65.1942 42.2384C65.9573 43.0977 67.0823 43.5596 68.3638 43.5596C69.6453 43.5596 70.7801 43.087 71.5431 42.2384C72.404 41.2933 72.8736 39.811 72.8736 38.0603C72.8736 36.3096 72.3942 34.8273 71.5431 33.8821ZM70.1931 41.0892C69.7725 41.6692 69.117 42.0129 68.3638 42.0129C67.6105 42.0129 66.9453 41.6799 66.5442 41.0892C66.0844 40.4555 65.8301 39.3921 65.8301 38.0603C65.8301 36.7284 66.0747 35.6759 66.5442 35.0314C66.9551 34.4514 67.6203 34.1292 68.3638 34.1292C69.1073 34.1292 69.7823 34.4514 70.1931 35.0314C70.6627 35.6866 70.8975 36.7284 70.8975 38.071C70.8975 39.4136 70.6627 40.4662 70.1931 41.0999V41.0892Z" fill="#314FB9"/>
<path d="M37.8424 43.3018C37.7348 43.1944 37.5978 42.9474 37.5978 42.5714V38.7585L40.8359 32.7974H38.6152C38.7718 32.9692 38.7913 33.2485 38.5957 33.5922L36.8446 36.9218C35.3674 33.9896 35.3772 33.9037 35.1033 33.3774C34.8978 32.98 34.7218 32.7974 34.3207 32.7974H32.5696C32.7065 32.937 32.8533 33.1518 33.1468 33.6996L35.7294 38.737V42.5714C35.7294 42.9474 35.6022 43.1944 35.4848 43.3018H37.8228H37.8424Z" fill="#314FB9"/>
<path d="M54.4137 43.3018C54.5213 43.1944 54.6583 42.9474 54.6583 42.5714V33.5385C54.6583 33.1626 54.5311 32.9155 54.4137 32.8081H57.5833C59.0996 32.8081 60.43 33.6137 60.43 35.1711C60.43 35.837 60.1561 36.7714 59.4517 37.1796C60.3028 37.534 61.2126 38.404 61.2126 39.8648C61.2126 40.9496 60.7235 41.9055 60.0583 42.4533C59.4517 42.9581 58.7376 43.3018 57.5833 43.3018H54.4137ZM56.517 36.7714C56.8593 36.8144 57.5637 36.7714 57.867 36.5888C58.1702 36.417 58.5126 36.1592 58.5126 35.504C58.5126 34.8488 58.0137 34.3118 57.28 34.3118C57.0061 34.3118 56.7811 34.3333 56.5072 34.4192V36.7714H56.517ZM58.5909 41.5403C59.1387 41.1537 59.2659 40.5951 59.2659 40.0044C59.2659 38.8551 58.3463 38.3181 57.4561 38.3181C57.2702 38.3181 56.8104 38.3181 56.517 38.3826V41.7444C57.1235 41.927 58.1017 41.884 58.5909 41.5403Z" fill="#314FB9"/>
<path d="M24.2446 42.5714C24.2446 42.9474 24.1174 43.1944 24 43.3018H26.338C26.2304 43.1944 26.0935 42.9474 26.0935 42.5714V38.4685L28.813 42.7218C29.0576 43.13 29.263 43.3018 29.6543 43.3018H31.5326C31.3761 43.1622 31.2098 42.9474 30.8576 42.3996L27.7957 37.6307L30.9261 32.7974H28.6174C28.7348 32.9692 28.7543 33.184 28.5293 33.5922L26.1033 37.4374V33.5277C26.1033 33.1518 26.2304 32.9048 26.3478 32.7974H24C24.1076 32.9048 24.2446 33.1518 24.2446 33.5277V42.5607V42.5714Z" fill="#314FB9"/>
<path d="M75.3493 18.4156C74.4786 17.4489 73.0308 17.61 72.1797 18.5981C71.0743 19.8763 70.2134 20.3489 69.1863 20.3059C67.758 20.2415 67.0439 19.0278 66.3102 17.4919C65.5471 15.8915 64.3732 15 62.9058 15C60.6069 15 59.2178 17.0515 59.2178 19.3285C59.2178 22.8407 61.4678 24.9352 63.0232 25.8267C64.3145 26.5678 65.7526 26.8793 67.0341 26.9115C66.9558 27.7493 66.7308 28.8663 66.4863 29.6504H69.1178C68.8634 28.8663 68.6286 27.6633 68.5602 26.8256C72.4145 26.2778 74.2536 24.3552 75.2515 22.5185C75.7015 21.713 75.946 20.8859 75.9363 20.1341C75.9363 19.4789 75.7406 18.8774 75.3297 18.4263L75.3493 18.4156ZM62.9352 20.6174C62.1917 20.6711 61.5558 20.0481 61.5069 19.2319C61.458 18.4156 62.0254 17.7067 62.7689 17.6637C63.5123 17.61 64.1482 18.233 64.1971 19.0493C64.246 19.8656 63.6786 20.5637 62.9449 20.6174H62.9352Z" fill="#3C9A17"/>
<path d="M109.867 37.0044H108.502V41.3696H105.889V42.5084H114V41.3696H109.867V37.0044Z" fill="#314FB9"/>
<path d="M111.685 40.2562H112.576C112.908 38.4215 113.146 36.144 113.288 34.613C113.36 33.7905 113.371 33.3604 112.671 33.3604H106.578V34.4991H111.685V40.2562Z" fill="#314FB9"/>
<path d="M98.0143 37.106H103.941V33.3228H97.1592V36.2076C97.1592 36.739 97.373 37.1186 98.0024 37.1186L98.0143 37.106ZM102.421 34.4615V35.9672H98.6913V34.4615H102.421Z" fill="#314FB9"/>
<path d="M98.8813 39.7754H97.3611V42.0149C97.3611 42.5464 97.5749 42.926 98.2043 42.926H103.965V41.7872H98.8813V39.7754Z" fill="#314FB9"/>
<path d="M96.4111 39.0415H99.9623V40.8129H101.482V39.0415H104.713V37.8901H96.4111V39.0415Z" fill="#314FB9"/>
<path d="M82.3492 37.3208H80.9834V41.3697H80.0451V37.3208H78.6793V41.3697H76.8265V42.5085H85.2827V41.3697H82.3492V37.3208Z" fill="#314FB9"/>
<path d="M83.1212 40.2562H84.0119C84.3445 38.4215 84.582 36.144 84.7245 34.613C84.8077 33.7905 84.8077 33.3604 84.1069 33.3604H77.7529V34.4991H83.1212V40.2562Z" fill="#314FB9"/>
<path d="M91.6125 39.4214H90.0804V41.3699H86.5886V42.5087H95.0448V41.3699H91.6125V39.4214Z" fill="#314FB9"/>
<path d="M88.6316 38.8012H93.0141C93.6436 38.8012 93.8692 38.4216 93.8692 37.8902V33.2593H92.3371V35.1319H89.3086V33.2593H87.7765V37.8902C87.7765 38.4216 87.9903 38.8012 88.6197 38.8012H88.6316ZM92.3252 36.2833V37.827H89.2967V36.2833H92.3252Z" fill="#314FB9"/>
</g>
</g>
<defs>
<clipPath id="clip0_3397_13858">
<rect width="375" height="44" fill="white"/>
</clipPath>
<clipPath id="clip1_3397_13858">
<rect width="90" height="29" fill="white" transform="translate(24 15)"/>
</clipPath>
</defs>
</svg>
