<svg width="28" height="25" viewBox="0 0 28 25" fill="none" xmlns="http://www.w3.org/2000/svg">
<path d="M27.0739 6.55396C26.7713 5.3777 26.1444 3.06835 25.6472 2.04317C25.2257 1.16906 24.3178 0.553957 23.3343 0.5L4.40919 0.532374C3.53373 0.73741 2.80958 1.2446 2.40968 2.05396C1.98816 2.90647 0.78846 6.79137 0.691187 7.70863C0.539873 9.2518 1.10189 10.1799 2.00978 11.3345V24.5H6.60325V17.464C6.60325 15.6187 8.10559 14.1187 9.95378 14.1187H11.1427C12.9909 14.1187 14.4932 15.6187 14.4932 17.464V24.5H26.0147V11.3345C27.3874 9.67266 27.6035 8.64748 27.0523 6.55396H27.0739ZM7.28417 3.84532C7.18689 4.95683 6.86264 7.74101 6.5384 8.70144C5.90072 10.5576 3.39322 10.0504 3.32837 8.14029L4.81991 3.13309H7.29498C7.29498 3.3705 7.29497 3.59712 7.28417 3.83453V3.84532ZM12.6991 8.58273C12.6991 8.58273 12.4288 9.04676 12.364 9.13309C11.3048 10.5468 9.28367 9.7482 9.28367 8.05396L10.0511 3.14389H12.6991V8.58273ZM15.9415 9.41367C15.747 9.24101 15.3362 8.71223 15.3362 8.47482V3.14389H17.9843L18.7516 8.15108C18.6003 9.57554 17.1088 10.4604 15.9415 9.41367ZM21.9833 16.7518H18.6003C17.8762 16.7518 17.2817 16.1583 17.2817 15.4353C17.2817 14.7122 17.8762 14.1187 18.6003 14.1187H21.9833C22.7074 14.1187 23.3019 14.7122 23.3019 15.4353C23.3019 16.1583 22.7074 16.7518 21.9833 16.7518ZM21.4753 8.6259L20.7403 3.14389H23.2694L24.6529 7.64389C25.096 9.96403 22.3075 10.741 21.4753 8.61511V8.6259Z" fill="#767676"/>
</svg>
