<svg width="90" height="29" viewBox="0 0 90 29" fill="none" xmlns="http://www.w3.org/2000/svg">
<g clip-path="url(#clip0_3397_13870)">
<path d="M22.813 17.5718C21.5315 17.5718 20.4065 18.0229 19.6435 18.8821C18.7728 19.8273 18.2935 21.3096 18.2935 23.0603C18.2935 24.811 18.7728 26.2933 19.6435 27.2384C20.4065 28.0977 21.5315 28.5596 22.813 28.5596C24.0945 28.5596 25.2293 28.087 25.9924 27.2384C26.8435 26.2933 27.3228 24.811 27.3228 23.0603C27.3228 21.3096 26.8435 19.8273 25.9924 18.8821C25.2293 18.0336 24.0945 17.5718 22.813 17.5718ZM24.6424 26.0892C24.2217 26.6692 23.5663 27.0129 22.813 27.0129C22.0598 27.0129 21.3945 26.6799 20.9935 26.0892C20.5239 25.4555 20.2793 24.3921 20.2793 23.0603C20.2793 21.7284 20.5239 20.6759 20.9935 20.0314C21.3945 19.4514 22.0695 19.1292 22.813 19.1292C23.5565 19.1292 24.2315 19.4514 24.6424 20.0314C25.1119 20.6866 25.3467 21.7284 25.3467 23.0603C25.3467 24.3921 25.1022 25.4555 24.6424 26.0892Z" fill="#314FB9"/>
<path d="M47.5431 18.8821C46.7801 18.0336 45.6453 17.5718 44.3638 17.5718C43.0823 17.5718 41.9573 18.0229 41.1942 18.8821C40.3334 19.8273 39.854 21.3096 39.854 23.0603C39.854 24.811 40.3334 26.2933 41.1942 27.2384C41.9573 28.0977 43.0823 28.5596 44.3638 28.5596C45.6453 28.5596 46.7801 28.087 47.5431 27.2384C48.404 26.2933 48.8736 24.811 48.8736 23.0603C48.8736 21.3096 48.3942 19.8273 47.5431 18.8821ZM46.1931 26.0892C45.7725 26.6692 45.117 27.0129 44.3638 27.0129C43.6105 27.0129 42.9453 26.6799 42.5442 26.0892C42.0844 25.4555 41.8301 24.3921 41.8301 23.0603C41.8301 21.7284 42.0747 20.6759 42.5442 20.0314C42.9551 19.4514 43.6203 19.1292 44.3638 19.1292C45.1073 19.1292 45.7823 19.4514 46.1931 20.0314C46.6627 20.6866 46.8975 21.7284 46.8975 23.071C46.8975 24.4136 46.6627 25.4662 46.1931 26.0999V26.0892Z" fill="#314FB9"/>
<path d="M13.8424 28.3018C13.7348 28.1944 13.5978 27.9474 13.5978 27.5714V23.7585L16.8359 17.7974H14.6152C14.7718 17.9692 14.7913 18.2485 14.5957 18.5922L12.8446 21.9218C11.3674 18.9896 11.3772 18.9037 11.1033 18.3774C10.8978 17.98 10.7218 17.7974 10.3207 17.7974H8.56958C8.70654 17.937 8.85328 18.1518 9.14675 18.6996L11.7294 23.737V27.5714C11.7294 27.9474 11.6022 28.1944 11.4848 28.3018H13.8228H13.8424Z" fill="#314FB9"/>
<path d="M30.4137 28.3018C30.5213 28.1944 30.6583 27.9474 30.6583 27.5714V18.5385C30.6583 18.1626 30.5311 17.9155 30.4137 17.8081H33.5833C35.0996 17.8081 36.43 18.6137 36.43 20.1711C36.43 20.837 36.1561 21.7714 35.4517 22.1796C36.3028 22.534 37.2126 23.404 37.2126 24.8648C37.2126 25.9496 36.7235 26.9055 36.0583 27.4533C35.4517 27.9581 34.7376 28.3018 33.5833 28.3018H30.4137ZM32.517 21.7714C32.8593 21.8144 33.5637 21.7714 33.867 21.5888C34.1702 21.417 34.5126 21.1592 34.5126 20.504C34.5126 19.8488 34.0137 19.3118 33.28 19.3118C33.0061 19.3118 32.7811 19.3333 32.5072 19.4192V21.7714H32.517ZM34.5909 26.5403C35.1387 26.1537 35.2659 25.5951 35.2659 25.0044C35.2659 23.8551 34.3463 23.3181 33.4561 23.3181C33.2702 23.3181 32.8104 23.3181 32.517 23.3826V26.7444C33.1235 26.927 34.1017 26.884 34.5909 26.5403Z" fill="#314FB9"/>
<path d="M0.244565 27.5714C0.244565 27.9474 0.117391 28.1944 0 28.3018H2.33804C2.23043 28.1944 2.09348 27.9474 2.09348 27.5714V23.4685L4.81304 27.7218C5.05761 28.13 5.26304 28.3018 5.65435 28.3018H7.53261C7.37609 28.1622 7.20978 27.9474 6.85761 27.3996L3.79565 22.6307L6.92609 17.7974H4.61739C4.73478 17.9692 4.75435 18.184 4.52935 18.5922L2.10326 22.4374V18.5277C2.10326 18.1518 2.23043 17.9048 2.34783 17.7974H0C0.107609 17.9048 0.244565 18.1518 0.244565 18.5277V27.5607V27.5714Z" fill="#314FB9"/>
<path d="M51.3493 3.41556C50.4786 2.44889 49.0308 2.61 48.1797 3.59815C47.0743 4.8763 46.2134 5.34889 45.1863 5.30593C43.758 5.24148 43.0439 4.02778 42.3102 2.49185C41.5471 0.891481 40.3732 0 38.9058 0C36.6069 0 35.2178 2.05148 35.2178 4.32852C35.2178 7.84074 37.4678 9.93518 39.0232 10.8267C40.3145 11.5678 41.7526 11.8793 43.0341 11.9115C42.9558 12.7493 42.7308 13.8663 42.4863 14.6504H45.1178C44.8634 13.8663 44.6286 12.6633 44.5602 11.8256C48.4145 11.2778 50.2536 9.35518 51.2515 7.51852C51.7015 6.71296 51.946 5.88593 51.9363 5.13407C51.9363 4.47889 51.7406 3.87741 51.3297 3.4263L51.3493 3.41556ZM38.9352 5.61741C38.1917 5.67111 37.5558 5.04815 37.5069 4.23185C37.458 3.41556 38.0254 2.70667 38.7689 2.6637C39.5123 2.61 40.1482 3.23296 40.1971 4.04926C40.246 4.86556 39.6786 5.5637 38.9449 5.61741H38.9352Z" fill="#3C9A17"/>
<path d="M85.8674 22.0044H84.5015V26.3696H81.8887V27.5084H90.0004V26.3696H85.8674V22.0044Z" fill="#314FB9"/>
<path d="M87.685 25.2562H88.5757C88.9083 23.4215 89.1458 21.144 89.2883 19.613C89.3596 18.7905 89.3715 18.3604 88.6707 18.3604H82.578V19.4991H87.685V25.2562Z" fill="#314FB9"/>
<path d="M74.0143 22.106H79.9408V18.3228H73.1592V21.2076C73.1592 21.739 73.373 22.1186 74.0024 22.1186L74.0143 22.106ZM78.4205 19.4615V20.9672H74.6913V19.4615H78.4205Z" fill="#314FB9"/>
<path d="M74.8813 24.7754H73.3611V27.0149C73.3611 27.5464 73.5749 27.926 74.2043 27.926H79.9645V26.7872H74.8813V24.7754Z" fill="#314FB9"/>
<path d="M72.4111 24.0415H75.9623V25.8129H77.4825V24.0415H80.7129V22.8901H72.4111V24.0415Z" fill="#314FB9"/>
<path d="M58.3492 22.3208H56.9834V26.3697H56.0451V22.3208H54.6793V26.3697H52.8265V27.5085H61.2827V26.3697H58.3492V22.3208Z" fill="#314FB9"/>
<path d="M59.1212 25.2562H60.0119C60.3445 23.4215 60.582 21.144 60.7245 19.613C60.8077 18.7905 60.8077 18.3604 60.1069 18.3604H53.7529V19.4991H59.1212V25.2562Z" fill="#314FB9"/>
<path d="M67.6125 24.4214H66.0804V26.3699H62.5886V27.5087H71.0448V26.3699H67.6125V24.4214Z" fill="#314FB9"/>
<path d="M64.6316 23.8012H69.0141C69.6436 23.8012 69.8692 23.4216 69.8692 22.8902V18.2593H68.3371V20.1319H65.3086V18.2593H63.7765V22.8902C63.7765 23.4216 63.9903 23.8012 64.6197 23.8012H64.6316ZM68.3252 21.2833V22.827H65.2967V21.2833H68.3252Z" fill="#314FB9"/>
</g>
<defs>
<clipPath id="clip0_3397_13870">
<rect width="90" height="29" fill="white"/>
</clipPath>
</defs>
</svg>
