<svg xmlns="http://www.w3.org/2000/svg" width="24" height="24" viewBox="0 0 24 24" fill="none">
  <path fill-rule="evenodd" clip-rule="evenodd" d="M12.0793 2.95117C12.1041 2.95363 12.129 2.95422 12.1535 2.95898C12.1669 2.96159 12.1803 2.96448 12.1936 2.96777C12.2053 2.9707 12.2171 2.97407 12.2287 2.97754C12.2445 2.98223 12.2601 2.98749 12.2756 2.99316C12.2822 2.99557 12.2886 2.99839 12.2951 3.00098C12.3381 3.01804 12.38 3.03868 12.4201 3.06348C12.4257 3.06694 12.4312 3.07061 12.4367 3.07422C12.4482 3.08174 12.4597 3.08948 12.4709 3.09766C12.4828 3.10637 12.4945 3.11554 12.5061 3.125C12.5137 3.13127 12.5211 3.13794 12.5285 3.14453C12.5389 3.15371 12.5497 3.16304 12.5598 3.17285L22.0598 12.4844C22.375 12.7936 22.3806 13.2998 22.0715 13.6152C21.7624 13.9305 21.2562 13.9356 20.9406 13.627L20.0002 12.7051V20L19.9895 20.2041C19.894 21.1455 19.1457 21.8937 18.2043 21.9893L18.0002 22H6.0002L5.7961 21.9893C4.85459 21.8938 4.10645 21.1456 4.01094 20.2041L4.0002 20V12.7051L3.05977 13.627C2.74429 13.9357 2.23807 13.9304 1.92891 13.6152C1.61973 13.2997 1.62521 12.7936 1.94063 12.4844L11.4406 3.17285C11.446 3.16755 11.4517 3.16234 11.4572 3.15723C11.471 3.14444 11.4848 3.13175 11.4992 3.12012C11.5043 3.11603 11.5097 3.11234 11.5148 3.1084C11.5303 3.09658 11.5457 3.08476 11.5617 3.07422C11.5684 3.06981 11.5754 3.06571 11.5822 3.06152C11.6214 3.03752 11.6624 3.01764 11.7043 3.00098C11.7111 2.99827 11.718 2.99567 11.7248 2.99316C11.74 2.9876 11.7553 2.98215 11.7707 2.97754C11.7824 2.97406 11.7941 2.97071 11.8059 2.96777C11.8191 2.96447 11.8325 2.9616 11.8459 2.95898C11.8701 2.95427 11.8947 2.95365 11.9191 2.95117C11.9458 2.94846 11.9724 2.94535 11.9992 2.94531C12.026 2.94529 12.0526 2.94851 12.0793 2.95117ZM5.59981 11.1367V20C5.59987 20.2209 5.77932 20.3994 6.0002 20.3994H18.0002C18.221 20.3993 18.4005 20.2208 18.4006 20V11.1367L12.0002 4.86328L5.59981 11.1367Z" fill="black"/>
</svg>