<svg xmlns="http://www.w3.org/2000/svg" width="24" height="24" viewBox="0 0 24 24" fill="none">
  <path d="M21 12C21 7.02944 16.9706 3 12 3C7.02944 3 3 7.02944 3 12C3 16.9706 7.02944 21 12 21C16.9706 21 21 16.9706 21 12ZM23 12C23 18.0751 18.0751 23 12 23C5.92487 23 1 18.0751 1 12C1 5.92487 5.92487 1 12 1C18.0751 1 23 5.92487 23 12Z" fill="#D5D5D5"/>
  <path d="M11.0002 13.5L11.0002 8C11.0002 7.44772 11.448 7 12.0002 7C12.5525 7 13.0002 7.44771 13.0002 8L13.0002 13.5C13.0002 14.0523 12.5525 14.5 12.0002 14.5C11.448 14.5 11.0002 14.0523 11.0002 13.5Z" fill="#595959"/>
  <path d="M12.01 15L12.1125 15.0049C12.6168 15.0561 13.01 15.4822 13.01 16C13.01 16.5178 12.6168 16.9439 12.1125 16.9951L12.01 17L12.0002 17C11.448 17 11.0002 16.5523 11.0002 16C11.0002 15.4477 11.448 15 12.0002 15L12.01 15Z" fill="#595959"/>
</svg>