<svg width="37" height="36" viewBox="0 0 37 36" fill="none" xmlns="http://www.w3.org/2000/svg">
<path d="M24.176 11.6037L18.5 17.2856L19.2151 18L24.9023 12.3181L26.8352 12.8093L30.5 9.14791L27.986 8.51163L27.3492 6L23.6844 9.6614L24.176 11.6037Z" fill="#5055B1"/>
<path d="M18.106 15.7158C18.106 15.7158 18.1829 15.6938 18.2158 15.6609L20.9943 12.8834C21.1041 12.7737 21.0712 12.5761 20.9284 12.5212C19.8521 12.0381 18.6112 11.8625 17.3153 12.115C14.8224 12.609 12.8565 14.7058 12.549 17.2307C12.0329 21.3145 15.668 24.7397 19.8192 23.8614C21.9058 23.4113 23.619 21.8305 24.234 19.7886C24.6733 18.3175 24.5415 16.9233 24.0363 15.7048C23.9705 15.5621 23.7838 15.5291 23.663 15.6389L20.7856 18.5152C20.7856 18.5152 20.7417 18.57 20.7307 18.603C20.4122 19.7666 19.2262 20.568 17.9083 20.2387C17.0956 20.0301 16.4367 19.3605 16.239 18.5371C15.9206 17.1539 16.8431 15.9243 18.106 15.7048V15.7158Z" fill="#5055B1"/>
<path d="M30.5108 11.8199C30.4421 11.6824 30.2473 11.6481 30.1328 11.7626L27.5783 14.3171C27.5095 14.3859 27.4981 14.4775 27.5325 14.5577C27.9334 15.6116 28.151 16.7457 28.151 17.937V18.063C28.151 23.3668 23.8553 27.6625 18.5515 27.6625H18.437C13.1332 27.6625 8.83751 23.3668 8.83751 18.063V17.937C8.83751 12.6332 13.1332 8.33751 18.437 8.33751H18.563C19.8002 8.33751 20.9915 8.57807 22.0798 9.00191C22.1599 9.03628 22.263 9.01336 22.3203 8.95609L24.8634 6.42448C24.9779 6.30993 24.9436 6.12664 24.8061 6.04646C22.9389 5.06131 20.8197 4.5 18.563 4.5H18.437C11.014 4.5 5 10.514 5 17.937V18.063C5 25.486 11.014 31.5 18.437 31.5H18.563C25.986 31.5 32 25.486 32 18.063V17.937C32 15.7376 31.4731 13.6527 30.5223 11.8199H30.5108Z" fill="#5055B1"/>
</svg>
