<svg xmlns="http://www.w3.org/2000/svg" width="18" height="18" viewBox="0 0 18 18" fill="none">
  <path d="M12.784 4.73581L9 8.52372L9.47673 9L13.2682 5.21209L14.5568 5.53953L17 3.0986L15.324 2.67442L14.8995 1L12.4563 3.44093L12.784 4.73581Z" fill="current"/>
  <path d="M8.73735 7.47718C8.73735 7.47718 8.78858 7.46254 8.81054 7.44058L10.6629 5.58896C10.7361 5.51578 10.7141 5.38404 10.6189 5.34745C9.90143 5.02543 9.07413 4.90833 8.2102 5.07666C6.54825 5.406 5.2377 6.80386 5.0327 8.48715C4.68859 11.2097 7.11199 13.4931 9.87948 12.9076C11.2705 12.6076 12.4127 11.5537 12.8227 10.1924C13.1155 9.2117 13.0277 8.28223 12.6909 7.46986C12.647 7.37472 12.5225 7.35276 12.442 7.42595L10.5237 9.34343C10.5237 9.34343 10.4945 9.38003 10.4871 9.40198C10.2748 10.1778 9.48411 10.712 8.60554 10.4925C8.06376 10.3534 7.62448 9.90697 7.4927 9.35807C7.28038 8.43592 7.89538 7.61623 8.73735 7.46986V7.47718Z" fill="current"/>
  <path d="M17.0072 4.87993C16.9614 4.78829 16.8316 4.76538 16.7552 4.84175L15.0522 6.54476C15.0064 6.59058 14.9987 6.65168 15.0216 6.70513C15.2889 7.40772 15.434 8.16377 15.434 8.958V9.042C15.434 12.5779 12.5702 15.4417 9.03435 15.4417H8.958C5.42215 15.4417 2.55834 12.5779 2.55834 9.042V8.958C2.55834 5.42215 5.42215 2.55834 8.958 2.55834H9.042C9.86677 2.55834 10.661 2.71871 11.3865 3.00127C11.44 3.02418 11.5087 3.00891 11.5469 2.97073L13.2423 1.28299C13.3186 1.20662 13.2957 1.08443 13.2041 1.03097C11.9593 0.374204 10.5465 0 9.042 0H8.958C4.00934 0 0 4.00933 0 8.958V9.042C0 13.9907 4.00934 18 8.958 18H9.042C13.9907 18 18 13.9907 18 9.042V8.958C18 7.49173 17.6487 6.10182 17.0148 4.87993H17.0072Z" fill="current"/>
</svg>