<svg xmlns="http://www.w3.org/2000/svg" width="24" height="24" viewBox="0 0 24 24" fill="none">
  <path d="M20.082 18.2041C20.4853 18.2452 20.7998 18.5859 20.7998 19C20.7998 19.4141 20.4853 19.7548 20.082 19.7959L20 19.7998H4C3.55817 19.7998 3.2002 19.4418 3.2002 19C3.2002 18.5582 3.55817 18.2002 4 18.2002H20L20.082 18.2041Z" fill="black"/>
  <path d="M20.082 11.2041C20.4853 11.2452 20.7998 11.5859 20.7998 12C20.7998 12.4141 20.4853 12.7548 20.082 12.7959L20 12.7998H4C3.55817 12.7998 3.2002 12.4418 3.2002 12C3.2002 11.5582 3.55817 11.2002 4 11.2002H20L20.082 11.2041Z" fill="black"/>
  <path d="M20.082 4.2041C20.4853 4.24518 20.7998 4.58587 20.7998 5C20.7998 5.41413 20.4853 5.75482 20.082 5.7959L20 5.7998H4C3.55817 5.7998 3.2002 5.44183 3.2002 5C3.2002 4.55817 3.55817 4.2002 4 4.2002H20L20.082 4.2041Z" fill="black"/>
</svg>