<svg width="24" height="24" viewBox="0 0 24 24" fill="none" xmlns="http://www.w3.org/2000/svg">
<path d="M13 2.2002L13.0439 2.20117L13.4697 2.23438C15.5919 2.44966 17.5802 3.39078 19.0947 4.90527C20.7101 6.52063 21.673 8.67507 21.7988 10.9561L21.7998 11V11.498L21.7969 11.7686C21.7605 13.1214 21.4256 14.4511 20.8144 15.6611L20.8135 15.6602C20.0415 17.2035 18.8563 18.5025 17.3886 19.4102C15.9202 20.3183 14.2275 20.798 12.501 20.7988L12.5019 20.7998C11.1697 20.8033 9.85458 20.5159 8.64646 19.9609L3.25291 21.7588C2.96544 21.8546 2.64881 21.7797 2.43455 21.5654C2.22029 21.3512 2.14537 21.0345 2.24119 20.7471L4.03806 15.3525C3.48343 14.1447 3.19671 12.8298 3.20017 11.498C3.20115 9.77184 3.68188 8.07949 4.58982 6.61133C5.49742 5.14378 6.7957 3.95754 8.33884 3.18555L8.58298 3.06738C9.80772 2.49349 11.1452 2.19795 12.5 2.20117V2.2002H13ZM12.0508 3.8125C11.0111 3.87121 9.99284 4.14334 9.06052 4.61426L9.05759 4.61523C7.77878 5.25436 6.70312 6.23725 5.95115 7.45312C5.19923 8.669 4.8004 10.0704 4.79978 11.5V11.502C4.79667 12.6958 5.07597 13.8738 5.61423 14.9395C5.71028 15.1297 5.72647 15.3505 5.65916 15.5527L4.26462 19.7344L8.44724 18.3408L8.52341 18.3193C8.70384 18.2785 8.89393 18.3017 9.06052 18.3857L9.4658 18.5752C10.4214 18.9891 11.4535 19.2029 12.498 19.2002H12.5L12.7676 19.1953C14.1039 19.1483 15.4069 18.7538 16.5469 18.0488C17.7627 17.2969 18.7456 16.2212 19.3847 14.9424L19.3857 14.9395L19.5752 14.5342C19.989 13.5786 20.2029 12.5465 20.2002 11.502V11.0312C20.0931 9.1483 19.2976 7.36994 17.9638 6.03613C16.63 4.70233 14.8517 3.90684 12.9687 3.7998H12.498L12.0508 3.8125Z" fill="black"/>
<circle cx="9.04999" cy="11.75" r="1.25" fill="#474C98"/>
<circle cx="12.55" cy="11.75" r="1.25" fill="#474C98"/>
<circle cx="16.05" cy="11.75" r="1.25" fill="#474C98"/>
</svg>
