<svg width="375" height="30" viewBox="0 0 375 30" fill="none" xmlns="http://www.w3.org/2000/svg">
<path d="M334.856 0L335.312 0.00488281C344.848 0.202261 352 6.5002 355.465 15.291C358.834 23.105 366.2 28.9722 375 30H0V0H334.856Z" fill="#EC1F2D"/>
<path d="M301.053 10.0059V11.3867H293.67V10.0059H296.5V8.76172H298.236V10.0059H301.053ZM297.361 11.7832C299.166 11.7969 300.424 12.7402 300.424 14.0938C300.424 15.4609 299.166 16.3906 297.361 16.3906C295.557 16.3906 294.271 15.4609 294.271 14.0938C294.271 12.7402 295.557 11.7969 297.361 11.7832ZM297.361 13.123C296.527 13.123 295.967 13.4512 295.98 14.0938C295.967 14.7363 296.527 15.0508 297.361 15.0508C298.195 15.0508 298.77 14.7363 298.77 14.0938C298.77 13.4512 298.195 13.123 297.361 13.123ZM303.541 8.81641V12.1523H305.223V13.5879H303.541V17.5254H301.791V8.81641H303.541ZM300.41 17.0332C300.41 18.3047 301.723 19.5625 304.375 19.8906L303.76 21.2031C301.771 20.9434 300.314 20.1504 299.562 19.043C298.804 20.1504 297.368 20.9434 295.379 21.2031L294.764 19.8906C297.389 19.5625 298.688 18.3047 298.688 17.0332V16.8555H300.41V17.0332ZM315.914 15.2422V16.623H307.109V9.73242H315.818V11.1406H308.887V12.4531H315.531V13.8203H308.887V15.2422H315.914ZM317.158 18.3867V19.8086H305.77V18.3867H317.158ZM328.561 8.83008V16.5684H326.906V13.3555H325.826V16.4863H324.199V9.04883H325.826V11.9473H326.906V8.83008H328.561ZM328.561 17.0742V21.2578H326.824V18.4688H319.961V17.0742H328.561ZM323.105 9.65039V13.4648H320.057V14.668C321.417 14.6611 322.429 14.5996 323.611 14.3809L323.762 15.7754C322.312 16.0215 321.082 16.0488 319.236 16.0488H318.375V12.1797H321.424V11.0312H318.361V9.65039H323.105ZM336.518 10.457C336.518 12.2754 338.131 14.2305 340.947 14.709L340.182 16.1582C338.015 15.7275 336.401 14.5107 335.602 12.9043C334.774 14.4971 333.161 15.7207 331.008 16.1582L330.256 14.709C333.018 14.2168 334.645 12.2617 334.658 10.457V9.55469H336.518V10.457ZM341.357 18.291V19.7266H329.969V18.291H341.357Z" fill="white"/>
</svg>
