<svg width="300" height="30" viewBox="0 0 300 30" fill="none" xmlns="http://www.w3.org/2000/svg">
<path d="M259.856 0L260.312 0.00488281C269.848 0.202261 277 6.5002 280.465 15.291C283.834 23.105 291.2 28.9722 300 30H0V0H259.856Z" fill="#05BBBF"/>
<path d="M233.202 14.7773C233.12 14.2578 232.655 13.916 231.985 13.916C231.329 13.916 230.823 14.2305 230.837 14.6816C230.823 15.0098 231.097 15.2695 231.794 15.4199L233.12 15.6934C234.556 15.9941 235.253 16.6367 235.267 17.7031C235.253 19.166 233.94 20.1504 231.972 20.1504C229.962 20.1504 228.786 19.248 228.622 17.7988H230.659C230.755 18.3867 231.233 18.6875 231.972 18.6875C232.71 18.6875 233.202 18.3867 233.202 17.9082C233.202 17.5254 232.888 17.293 232.19 17.1426L230.96 16.8965C229.552 16.623 228.813 15.8848 228.827 14.791C228.813 13.3691 230.044 12.4805 231.958 12.4805C233.831 12.4805 234.993 13.3691 235.103 14.7773H233.202ZM236.155 17.9219C236.155 16.2676 237.495 15.7207 238.917 15.6387C239.45 15.6045 240.448 15.5566 240.763 15.543V14.9414C240.749 14.3262 240.325 13.957 239.573 13.957C238.89 13.957 238.452 14.2715 238.343 14.7773H236.415C236.538 13.4922 237.659 12.4805 239.628 12.4805C241.241 12.4805 242.772 13.2051 242.772 14.9961V20H240.858V18.9746H240.804C240.435 19.6582 239.737 20.1367 238.63 20.1367C237.208 20.1367 236.155 19.3984 236.155 17.9219ZM238.097 17.8672C238.097 18.4414 238.562 18.7422 239.204 18.7422C240.12 18.7422 240.776 18.127 240.763 17.3477V16.8008C240.455 16.8145 239.594 16.8623 239.245 16.8965C238.548 16.9648 238.097 17.293 238.097 17.8672ZM244.317 20V12.5762H246.245V13.875H246.327C246.642 13.0137 247.394 12.4805 248.392 12.4805C249.417 12.4805 250.169 13.0137 250.415 13.875H250.483C250.798 13.0273 251.632 12.4805 252.726 12.4805C254.106 12.4805 255.063 13.3965 255.063 15.0098V20H253.04V15.4062C253.04 14.5586 252.548 14.1484 251.878 14.1484C251.112 14.1484 250.675 14.6816 250.675 15.4609V20H248.706V15.3516C248.706 14.6133 248.241 14.1484 247.558 14.1484C246.874 14.1484 246.341 14.6953 246.341 15.543V20H244.317Z" fill="white"/>
</svg>
