<svg width="224" height="30" viewBox="0 0 224 30" fill="none" xmlns="http://www.w3.org/2000/svg">
<path d="M182.856 0L183.312 0.00488281C192.848 0.202261 200 6.5002 203.465 15.291C206.834 23.105 214.2 28.9722 223 30H0V0H182.856Z" fill="#314FB9"/>
<path d="M149.519 20.1504C147.249 20.1504 145.854 18.6738 145.854 16.3223C145.854 14.0254 147.263 12.4805 149.437 12.4805C151.392 12.4805 152.923 13.7109 152.923 16.2402V16.8145H147.851C147.851 17.9355 148.521 18.6328 149.56 18.6328C150.243 18.6328 150.735 18.332 150.94 17.8809H152.868C152.581 19.248 151.351 20.1504 149.519 20.1504ZM147.851 15.543H151.009C151.009 14.6406 150.38 13.998 149.478 13.998C148.548 13.998 147.885 14.6885 147.851 15.543ZM154.235 20V10.1016H158.173C160.36 10.1016 161.454 11.1543 161.454 12.6445C161.454 13.8066 160.702 14.5312 159.677 14.7637V14.8594C160.798 14.9141 161.851 15.8027 161.851 17.2656C161.851 18.8379 160.675 20 158.433 20H154.235ZM158.022 18.3047C159.212 18.3047 159.718 17.8125 159.718 17.0742C159.718 16.2402 159.089 15.6523 158.077 15.6523H156.286V18.3047H158.022ZM157.872 14.2441C158.733 14.2441 159.376 13.7656 159.376 12.9727C159.376 12.2617 158.856 11.7695 157.913 11.7695H156.286V14.2441H157.872ZM166.444 20.1504C164.202 20.1504 162.808 18.6055 162.808 16.3086C162.808 14.0117 164.202 12.4805 166.444 12.4805C168.687 12.4805 170.095 14.0117 170.095 16.3086C170.095 18.6055 168.687 20.1504 166.444 20.1504ZM166.458 18.5781C167.497 18.5781 168.03 17.6074 168.03 16.3086C168.03 14.9961 167.497 14.0254 166.458 14.0254C165.405 14.0254 164.858 14.9961 164.858 16.3086C164.858 17.6074 165.405 18.5781 166.458 18.5781ZM174.702 20.1504C172.46 20.1504 171.065 18.6055 171.065 16.3086C171.065 14.0117 172.46 12.4805 174.702 12.4805C176.944 12.4805 178.353 14.0117 178.353 16.3086C178.353 18.6055 176.944 20.1504 174.702 20.1504ZM174.716 18.5781C175.755 18.5781 176.288 17.6074 176.288 16.3086C176.288 14.9961 175.755 14.0254 174.716 14.0254C173.663 14.0254 173.116 14.9961 173.116 16.3086C173.116 17.6074 173.663 18.5781 174.716 18.5781ZM179.624 20V10.1016H181.647V15.4199H181.757L184.163 12.5762H186.487L183.726 15.7891L186.638 20H184.259L182.222 16.9785L181.647 17.6211V20H179.624Z" fill="white"/>
</svg>
