<svg xmlns="http://www.w3.org/2000/svg" width="20" height="18" viewBox="0 0 20 18" fill="none">
  <path d="M2.52259 14.5594H9.62349V17.2337H5.09036V18H14.9096V17.2337H10.3765V14.5594H17.4774C18.8629 14.5594 19.9925 13.41 20 12H0C0 13.41 1.12952 14.5594 2.52259 14.5594Z" fill="black"/>
  <path d="M17.4849 0H2.52259C1.12952 0 0 1.10813 0 2.47482V11H20V2.47482C20 1.10813 18.8705 0 17.4774 0H17.4849ZM12.613 5.28207C12.4925 5.55541 11.9277 6.10947 11.8675 6.32371C11.7696 6.64876 11.9352 7.26931 11.8373 7.62391C11.6416 8.37005 10.4669 7.64607 10.0226 7.63868C9.6762 7.6313 9.06627 7.97112 8.70482 7.9859C7.83886 8.02283 8.2756 6.76696 8.14759 6.32371C8.09488 6.15379 7.59036 5.59973 7.46235 5.37811C6.90512 4.40296 8.35843 4.46944 8.83283 4.15917C9.08133 3.99664 9.38253 3.39825 9.63102 3.16924C9.70632 3.09537 9.75904 3.05843 9.87199 3.03627C10.0377 3.00672 10.2033 3.02149 10.3389 3.12492C10.6175 3.33177 10.9262 4.01142 11.2048 4.17394C11.6642 4.43989 12.997 4.42512 12.613 5.28207Z" fill="black"/>
</svg>