<svg xmlns="http://www.w3.org/2000/svg" width="16" height="18" viewBox="0 0 16 18" fill="none">
  <path d="M14.3162 2.90656H1.83483C1.20812 2.90656 0.694666 2.40492 0.694666 1.79262C0.694666 1.18033 1.20812 0.678689 1.83483 0.678689H12.5946V0H1.83483C0.823036 0 0 0.804098 0 1.79262V16.3549C0 17.2623 0.75507 18 1.68381 18H14.3162C15.2449 18 16 17.2623 16 16.3549V4.55164C16 3.64426 15.2449 2.90656 14.3162 2.90656ZM9.49127 13.5664H6.51628C5.72346 13.5664 5.05144 12.932 5.05144 12.15C5.05144 11.0803 5.83672 10.1951 6.87872 9.98852C6.93157 9.98115 6.94667 9.91475 6.90137 9.88525C6.52383 9.60492 6.28221 9.14754 6.33506 8.63115C6.40302 7.88607 7.09769 7.34754 7.86031 7.34754H8.14724C8.90987 7.34754 9.60453 7.88607 9.67248 8.63115C9.71779 9.14754 9.48372 9.60492 9.10618 9.88525C9.06087 9.91475 9.07598 9.98115 9.12883 9.98852C10.1633 10.1951 10.9486 11.0803 10.9561 12.15C10.9561 12.9246 10.2917 13.5664 9.49127 13.5664Z" fill="black"/>
</svg>