<svg width="24" height="24" viewBox="0 0 24 24" fill="none" xmlns="http://www.w3.org/2000/svg">
<path d="M8.84682 10.3514C8.84682 9.30681 10.0385 7.91893 10.0385 7.91893C10.0385 7.91893 10.6761 7.30591 10.3573 6.78117C9.96987 6.14854 8.66046 6.78117 8.66046 6.78117C8.66046 6.78117 4.46742 8.41425 4.25654 13.4263C4.24183 13.5489 4.25654 13.7352 4.25654 13.8628C4.25163 16.1138 6.29666 17.8842 8.63104 17.433C10.068 17.1534 11.2204 15.9813 11.4803 14.5395C11.8334 12.5681 10.6025 10.8271 8.85172 10.3514H8.84682Z" fill="#474C98"/>
<path d="M17.0517 10.3514C17.0517 9.30681 18.2434 7.91893 18.2434 7.91893C18.2434 7.91893 18.8809 7.30591 18.5621 6.78117C18.1747 6.14854 16.8653 6.78117 16.8653 6.78117C16.8653 6.78117 12.6673 8.40935 12.4614 13.4214C12.4467 13.544 12.4614 13.7303 12.4614 13.8579C12.4614 16.1089 14.5015 17.8842 16.8359 17.4281C18.2728 17.1485 19.4253 15.9764 19.6852 14.5346C20.0383 12.5632 18.8073 10.8222 17.0566 10.3465L17.0517 10.3514Z" fill="#474C98"/>
</svg>
