<svg xmlns="http://www.w3.org/2000/svg" width="18" height="18" viewBox="0 0 18 18" fill="none">
  <path d="M9 0C4.03631 0 0 4.03632 0 9C0 13.9637 4.03631 18 9 18C13.9637 18 18 13.9637 18 9C18 4.03632 13.9637 0 9 0ZM12.6486 10.6951C12.5194 10.984 12.2382 11.1512 11.9493 11.1512C11.8429 11.1512 11.7365 11.1284 11.6377 11.0828L8.17905 9.5473L7.09206 5.83024C6.97043 5.41976 7.20608 4.99409 7.61655 4.88007C8.01942 4.76605 8.4527 4.99409 8.56672 5.40456L9.45608 8.4375L12.261 9.68412C12.6486 9.85895 12.8235 10.3074 12.6486 10.6951Z" fill="black"/>
</svg>