<svg width="24" height="24" viewBox="0 0 24 24" fill="none" xmlns="http://www.w3.org/2000/svg">
<path d="M14.225 12.9395C13.8648 12.9395 13.5767 13.2311 13.5767 13.5958V13.9928C13.5767 14.3574 13.8648 14.6491 14.225 14.6491C14.5851 14.6491 14.8732 14.3574 14.8732 13.9928V13.5958C14.8732 13.2311 14.5851 12.9395 14.225 12.9395Z" fill="black"/>
<path d="M20.8199 11.5138L19.9876 10.5496C19.6834 10.2012 19.5554 9.72316 19.6434 9.26941L19.8835 8.02161C19.9555 7.65699 19.7474 7.30047 19.4033 7.17893L18.1787 6.74949C17.7466 6.59554 17.4104 6.26334 17.2583 5.82579L16.8342 4.6023C16.7141 4.26198 16.3619 4.05132 16.0098 4.12424L14.7132 4.36732C14.273 4.44835 13.8168 4.32681 13.4727 4.03511L12.4722 3.17623C12.2001 2.94126 11.7999 2.94126 11.5278 3.17623L10.5273 4.03511C10.1832 4.32681 9.72698 4.44835 9.28679 4.36732L7.99021 4.12424C7.63806 4.05942 7.2859 4.26198 7.16585 4.6023L6.74166 5.82579C6.58959 6.26334 6.25345 6.59554 5.82126 6.74949L4.5967 7.17893C4.25255 7.30047 4.04446 7.65699 4.1165 8.02161L4.3566 9.26941C4.44464 9.72316 4.31658 10.2012 4.01244 10.5496L3.18008 11.5138C2.93997 11.7893 2.93997 12.2107 3.18008 12.4862L4.01244 13.4504C4.31658 13.7988 4.44464 14.2768 4.3566 14.7306L4.1165 15.9784C4.04446 16.343 4.25255 16.6995 4.5967 16.8211L5.82126 17.2505C6.25345 17.4045 6.58959 17.7367 6.74166 18.1742L7.16585 19.3977C7.2859 19.738 7.63806 19.9487 7.99021 19.8758L9.28679 19.6327C9.72698 19.5517 10.1832 19.6732 10.5273 19.9649L11.5278 20.8238C11.7999 21.0587 12.2001 21.0587 12.4722 20.8238L13.4727 19.9649C13.8168 19.6732 14.273 19.5517 14.7132 19.6327L16.0098 19.8758C16.3619 19.9406 16.7141 19.738 16.8342 19.3977L17.2583 18.1742C17.4104 17.7367 17.7466 17.4045 18.1787 17.2505L19.4033 16.8211C19.7474 16.6995 19.9555 16.343 19.8835 15.9784L19.6434 14.7306C19.5554 14.2768 19.6834 13.7988 19.9876 13.4504L20.8199 12.4862C21.06 12.2107 21.06 11.7893 20.8199 11.5138ZM8.23032 10.4038V10.0068C8.23032 9.14787 8.91863 8.45105 9.76701 8.45105C10.6154 8.45105 11.3037 9.14787 11.3037 10.0068V10.4038C11.3037 11.2627 10.6154 11.9595 9.76701 11.9595C8.91863 11.9595 8.23032 11.2627 8.23032 10.4038ZM10.8235 15.0628C10.7434 15.2086 10.5914 15.2978 10.4393 15.2978C10.3673 15.2978 10.2952 15.2816 10.2232 15.2411C10.0071 15.1195 9.93509 14.844 10.0471 14.6334L13.1605 8.95341C13.2806 8.73464 13.5447 8.66172 13.7608 8.77515C13.9769 8.89669 14.0489 9.17218 13.9369 9.38285L10.8235 15.0628ZM15.7617 13.9932C15.7617 14.8521 15.0734 15.549 14.225 15.549C13.3766 15.549 12.6883 14.8521 12.6883 13.9932V13.5962C12.6883 12.7373 13.3766 12.0405 14.225 12.0405C15.0734 12.0405 15.7617 12.7373 15.7617 13.5962V13.9932Z" fill="current"/>
<path d="M9.75889 9.35059C9.39873 9.35059 9.1106 9.64228 9.1106 10.0069V10.4039C9.1106 10.7685 9.39873 11.0602 9.75889 11.0602C10.1191 11.0602 10.4072 10.7685 10.4072 10.4039V10.0069C10.4072 9.64228 10.1191 9.35059 9.75889 9.35059Z" fill="black"/>
</svg>
