<svg xmlns="http://www.w3.org/2000/svg" width="24" height="24" viewBox="0 0 24 24" fill="none">
  <path d="M8.05618 7.16842L10.573 3.73421C10.7528 3.48158 10.9663 3.29605 11.2135 3.17763C11.4607 3.05921 11.7191 3 11.9888 3C12.2584 3 12.5169 3.05921 12.764 3.17763C13.0112 3.29605 13.2247 3.48158 13.4045 3.73421L15.9213 7.16842L19.7416 8.51842C20.1311 8.64474 20.4382 8.87763 20.6629 9.21711C20.8876 9.55658 21 9.93158 21 10.3421C21 10.5316 20.9738 10.7211 20.9213 10.9105C20.8689 11.1 20.7828 11.2816 20.6629 11.4553L18.191 15.15L18.2809 19.0342C18.2959 19.5868 18.1236 20.0526 17.764 20.4316C17.4045 20.8105 16.985 21 16.5056 21C16.4757 21 16.3109 20.9763 16.0112 20.9289L11.9888 19.7447L7.96629 20.9289C7.89139 20.9605 7.80899 20.9803 7.7191 20.9882C7.62921 20.9961 7.54682 21 7.47191 21C6.99251 21 6.57303 20.8105 6.21348 20.4316C5.85393 20.0526 5.68165 19.5868 5.69663 19.0342L5.78652 15.1263L3.33708 11.4553C3.21723 11.2816 3.13109 11.1 3.07865 10.9105C3.02622 10.7211 3 10.5316 3 10.3421C3 9.94737 3.10861 9.58026 3.32584 9.24079C3.54307 8.90132 3.84644 8.66053 4.23596 8.51842L8.05618 7.16842Z" fill="current"/>
</svg>