<svg width="37" height="36" viewBox="0 0 37 36" fill="none" xmlns="http://www.w3.org/2000/svg">
<path d="M33.2082 11.3107C32.8677 9.98741 32.1625 7.38939 31.6032 6.23606C31.1289 5.2527 30.1076 4.5607 29.0011 4.5L7.71035 4.53642C6.72546 4.76709 5.91079 5.33768 5.4609 6.2482C4.98669 7.20728 3.63703 11.5778 3.5276 12.6097C3.35737 14.3458 3.98964 15.3898 5.01101 16.6888V31.5H10.1787V23.5845C10.1787 21.5085 11.8688 19.821 13.948 19.821H15.2855C17.3647 19.821 19.0549 21.5085 19.0549 23.5845V31.5H32.0166V16.6888C33.5608 14.8192 33.804 13.6659 33.1838 11.3107H33.2082ZM10.9447 8.26349C10.8353 9.51394 10.4705 12.6461 10.1057 13.7266C9.38832 15.8147 6.56739 15.2442 6.49443 13.0953L8.17241 7.46223H10.9569C10.9569 7.72932 10.9569 7.98426 10.9447 8.25135V8.26349ZM17.0365 13.5931C17.0365 13.5931 16.7325 14.1151 16.6595 14.2122C15.4679 15.8026 13.1941 14.9042 13.1941 12.9982L14.0574 7.47437H17.0365V13.5931ZM20.6842 14.5279C20.4653 14.3336 20.0033 13.7388 20.0033 13.4717V7.47437H22.9823L23.8456 13.1075C23.6754 14.71 21.9974 15.7055 20.6842 14.5279ZM27.4812 22.7833H23.6754C22.8607 22.7833 22.1919 22.1156 22.1919 21.3022C22.1919 20.4888 22.8607 19.821 23.6754 19.821H27.4812C28.2959 19.821 28.9646 20.4888 28.9646 21.3022C28.9646 22.1156 28.2959 22.7833 27.4812 22.7833ZM26.9097 13.6416L26.0829 7.47437H28.9281L30.4845 12.5369C30.983 15.147 27.846 16.0211 26.9097 13.6295V13.6416Z" fill="#5055B1"/>
</svg>
