<svg xmlns="http://www.w3.org/2000/svg" width="20" height="18" viewBox="0 0 20 18" fill="none">
  <path d="M19.8054 4.54047C19.5785 3.65827 19.1083 1.92626 18.7354 1.15737C18.4193 0.501798 17.7384 0.0404676 17.0007 0L2.8069 0.0242806C2.1503 0.178058 1.60719 0.558453 1.30727 1.16547C0.99113 1.80486 0.0913529 4.71853 0.0183978 5.40648C-0.0950879 6.56385 0.326425 7.25989 1.00734 8.1259V18H4.45244V12.723C4.45244 11.339 5.5792 10.214 6.96535 10.214H7.85702C9.24317 10.214 10.3699 11.339 10.3699 12.723V18H19.011V8.1259C20.0405 6.8795 20.2026 6.11061 19.7892 4.54047H19.8054ZM4.96313 2.50899C4.89018 3.34263 4.64699 5.43076 4.40381 6.15108C3.92555 7.54317 2.04492 7.16277 1.99629 5.73022L3.11494 1.97482H4.97124C4.97124 2.15288 4.97124 2.32284 4.96313 2.5009V2.50899ZM9.0243 6.06205C9.0243 6.06205 8.82164 6.41007 8.77301 6.47482C7.97861 7.53507 6.46276 6.93615 6.46276 5.66547L7.0383 1.98291H9.0243V6.06205ZM11.4561 6.68525C11.3102 6.55576 11.0022 6.15917 11.0022 5.98112V1.98291H12.9882L13.5637 5.73831C13.4502 6.80665 12.3316 7.47032 11.4561 6.68525ZM15.9875 12.1888H13.4502C12.9071 12.1888 12.4613 11.7437 12.4613 11.2014C12.4613 10.6592 12.9071 10.214 13.4502 10.214H15.9875C16.5306 10.214 16.9764 10.6592 16.9764 11.2014C16.9764 11.7437 16.5306 12.1888 15.9875 12.1888ZM15.6065 6.09442L15.0553 1.98291H16.9521L17.9897 5.35791C18.322 7.09802 16.2306 7.68076 15.6065 6.08633V6.09442Z" fill="current"/>
</svg>