<svg width="37" height="36" viewBox="0 0 37 36" fill="none" xmlns="http://www.w3.org/2000/svg">
<path d="M21.8374 19.4099C21.2972 19.4099 20.865 19.8475 20.865 20.3944V20.9899C20.865 21.5369 21.2972 21.9744 21.8374 21.9744C22.3777 21.9744 22.8099 21.5369 22.8099 20.9899V20.3944C22.8099 19.8475 22.3777 19.4099 21.8374 19.4099Z" fill="#5055B1"/>
<path d="M31.7299 17.2708L30.4813 15.8244C30.0251 15.3018 29.833 14.5847 29.9651 13.9041L30.3253 12.0324C30.4333 11.4855 30.1212 10.9507 29.6049 10.7684L27.7681 10.1242C27.1198 9.89332 26.6156 9.395 26.3875 8.73869L25.7512 6.90344C25.5711 6.39298 25.0429 6.07697 24.5147 6.18636L22.5698 6.55098C21.9095 6.67252 21.2252 6.49021 20.709 6.05267L19.2083 4.76435C18.8001 4.41188 18.1999 4.41188 17.7917 4.76435L16.291 6.05267C15.7748 6.49021 15.0905 6.67252 14.4302 6.55098L12.4853 6.18636C11.9571 6.08913 11.4289 6.39298 11.2488 6.90344L10.6125 8.73869C10.3844 9.395 9.88017 9.89332 9.23189 10.1242L7.39505 10.7684C6.87882 10.9507 6.56669 11.4855 6.67474 12.0324L7.03491 13.9041C7.16697 14.5847 6.97487 15.3018 6.51867 15.8244L5.27012 17.2708C4.90996 17.684 4.90996 18.316 5.27012 18.7292L6.51867 20.1756C6.97487 20.6982 7.16697 21.4153 7.03491 22.0959L6.67474 23.9676C6.56669 24.5145 6.87882 25.0493 7.39505 25.2316L9.23189 25.8758C9.88017 26.1067 10.3844 26.605 10.6125 27.2613L11.2488 29.0966C11.4289 29.607 11.9571 29.923 12.4853 29.8136L14.4302 29.449C15.0905 29.3275 15.7748 29.5098 16.291 29.9473L17.7917 31.2357C18.1999 31.5881 18.8001 31.5881 19.2083 31.2357L20.709 29.9473C21.2252 29.5098 21.9095 29.3275 22.5698 29.449L24.5147 29.8136C25.0429 29.9109 25.5711 29.607 25.7512 29.0966L26.3875 27.2613C26.6156 26.605 27.1198 26.1067 27.7681 25.8758L29.6049 25.2316C30.1212 25.0493 30.4333 24.5145 30.3253 23.9676L29.9651 22.0959C29.833 21.4153 30.0251 20.6982 30.4813 20.1756L31.7299 18.7292C32.09 18.316 32.09 17.684 31.7299 17.2708ZM12.8455 15.6057V15.0101C12.8455 13.7218 13.8779 12.6766 15.1505 12.6766C16.4231 12.6766 17.4555 13.7218 17.4555 15.0101V15.6057C17.4555 16.894 16.4231 17.9392 15.1505 17.9392C13.8779 17.9392 12.8455 16.894 12.8455 15.6057ZM16.7352 22.5942C16.6152 22.813 16.3871 22.9467 16.159 22.9467C16.0509 22.9467 15.9429 22.9223 15.8348 22.8616C15.5107 22.6793 15.4026 22.266 15.5707 21.95L20.2408 13.4301C20.4209 13.102 20.817 12.9926 21.1412 13.1627C21.4653 13.345 21.5734 13.7583 21.4053 14.0743L16.7352 22.5942ZM24.1425 20.9899C24.1425 22.2782 23.1101 23.3234 21.8375 23.3234C20.5649 23.3234 19.5325 22.2782 19.5325 20.9899V20.3943C19.5325 19.106 20.5649 18.0608 21.8375 18.0608C23.1101 18.0608 24.1425 19.106 24.1425 20.3943V20.9899Z" fill="#5055B1"/>
<path d="M15.1383 14.0259C14.5981 14.0259 14.1659 14.4634 14.1659 15.0103V15.6059C14.1659 16.1528 14.5981 16.5904 15.1383 16.5904C15.6786 16.5904 16.1108 16.1528 16.1108 15.6059V15.0103C16.1108 14.4634 15.6786 14.0259 15.1383 14.0259Z" fill="#5055B1"/>
</svg>
