<svg xmlns="http://www.w3.org/2000/svg" width="18" height="20" viewBox="0 0 18 20" fill="none">
  <path d="M16.4829 3.23268H15.2663V2.2741C15.2663 1.29405 14.4528 0.5 13.4487 0.5H4.5513C3.54723 0.5 2.73371 1.29405 2.73371 2.2741V3.23268H1.5171C0.681596 3.23268 0 3.89797 0 4.71348V7.33886C0 8.97703 1.34121 10.3076 3.01222 10.3577C3.7671 12.7398 5.98046 14.4996 8.63355 14.6499V16.0877H6.31759C5.19625 16.0877 4.28746 16.9748 4.28746 18.0693V18.7846H3.10016V19.5H14.8998V18.7846H13.7125V18.0693C13.7125 16.9748 12.8037 16.0877 11.6824 16.0877H9.36645V14.6499C12.0195 14.4996 14.2329 12.7398 14.9878 10.3577C16.6588 10.3076 18 8.97703 18 7.33886V4.71348C18 3.89797 17.3184 3.23268 16.4829 3.23268ZM11.5358 7.34601C11.4186 7.61069 10.8689 8.14721 10.8103 8.35467C10.715 8.66943 10.8762 9.27033 10.7809 9.6137C10.5904 10.3362 9.44707 9.63517 9.01466 9.62801C8.67752 9.62086 8.08388 9.94992 7.73208 9.96423C6.88925 10 7.31433 8.78389 7.18974 8.35467C7.13844 8.19014 6.64739 7.65361 6.5228 7.43901C5.98046 6.49473 7.39495 6.55911 7.85668 6.25866C8.09853 6.10128 8.39169 5.52184 8.63355 5.30008C8.70684 5.22854 8.75814 5.19277 8.86808 5.17131C9.02932 5.1427 9.19055 5.157 9.32248 5.25715C9.59365 5.45746 9.89414 6.11559 10.1653 6.27297C10.6124 6.5305 11.9096 6.51619 11.5358 7.34601Z" fill="current"/>
</svg>