<svg width="37" height="36" viewBox="0 0 37 36" fill="none" xmlns="http://www.w3.org/2000/svg">
<path d="M26.2535 7.47778L21.7757 3L18.0955 6.68021L19.2007 7.78542L18.2209 8.76529L17.1157 7.66008L3.5 21.2757L7.97779 25.7535C8.74118 24.9901 9.9831 24.9901 10.7465 25.7535C11.5099 26.5169 11.5099 27.7588 10.7465 28.5222L15.2243 33L28.8399 19.3844L28.1677 18.7121L29.1476 17.7322L29.8198 18.4045L33.5 14.7243L29.0222 10.2465C28.2588 11.0099 27.0169 11.0099 26.2535 10.2465C25.4901 9.4831 25.4901 8.24117 26.2535 7.47778ZM28.0424 16.627L27.0625 17.6069L25.9573 16.5017L26.9372 15.5218L28.0424 16.627ZM25.8319 14.4166L24.8521 15.3965L23.7469 14.2913L24.7267 13.3114L25.8319 14.4166ZM23.6215 12.2062L22.6417 13.1861L21.5365 12.0809L22.5163 11.101L23.6215 12.2062ZM21.4111 9.99582L20.4313 10.9757L19.3261 9.87049L20.3059 8.89062L21.4111 9.99582Z" fill="#5055B1"/>
</svg>
