<svg xmlns="http://www.w3.org/2000/svg" width="20" height="20" viewBox="0 0 20 20" fill="none">
  <path d="M15.169 2.98519L12.1838 0L9.73036 2.45348L10.4672 3.19028L9.81391 3.84352L9.07711 3.10672L0 12.1838L2.98519 15.169C3.49412 14.6601 4.32207 14.6601 4.83099 15.169C5.33992 15.6779 5.33992 16.5059 4.83099 17.0148L7.81619 20L16.8933 10.9229L16.4451 10.4747L17.0984 9.8215L17.5465 10.2697L20 7.81618L17.0148 4.83099C16.5059 5.33992 15.6779 5.33992 15.169 4.83099C14.6601 4.32207 14.6601 3.49411 15.169 2.98519ZM16.3616 9.08469L15.7083 9.73794L14.9715 9.00114L15.6248 8.34789L16.3616 9.08469ZM14.888 7.61109L14.2347 8.26434L13.4979 7.52754L14.1512 6.87429L14.888 7.61109ZM13.4144 6.13749L12.7611 6.79073L12.0243 6.05393L12.6776 5.40068L13.4144 6.13749ZM11.9408 4.66388L11.2875 5.31713L10.5507 4.58033L11.2039 3.92708L11.9408 4.66388Z" fill="current"/>
</svg>