<svg xmlns="http://www.w3.org/2000/svg" width="14" height="14" viewBox="0 0 14 14" fill="none">
  <path fill-rule="evenodd" clip-rule="evenodd" d="M9.27273 3.53846H12V4.30769H11.0909V10.5654C11.0909 10.9874 10.9051 11.388 10.583 11.6606C10.324 11.8797 9.99563 12 9.65632 12H4.34368C4.00437 12 3.67605 11.8797 3.41702 11.6606C3.09488 11.388 2.90909 10.9874 2.90909 10.5654V4.30769H2V3.53846H4.72727V2.76923C4.72727 2.56522 4.82305 2.36956 4.99354 2.2253C5.16403 2.08104 5.39526 2 5.63636 2H8.36364C8.60474 2 8.83597 2.08104 9.00646 2.2253C9.17695 2.36956 9.27273 2.56522 9.27273 2.76923V3.53846ZM8.36364 2.76923H5.63636V3.53846H8.36364V2.76923ZM3.81818 10.2308C3.81818 10.7831 4.2659 11.2308 4.81818 11.2308H9.18182C9.7341 11.2308 10.1818 10.7831 10.1818 10.2308V4.30769H3.81818V10.2308ZM5.63636 5.07692H4.72727V9.6282H5.63636V5.07692ZM6.54545 5.07692H7.45455V9.6282H6.54545V5.07692ZM8.36364 5.07692H9.27273V9.6282H8.36364V5.07692Z" fill="black"/>
</svg>