<svg width="16" height="16" viewBox="0 0 16 16" fill="none" xmlns="http://www.w3.org/2000/svg">
<g clip-path="url(#clip0_3998_710)">
<g clip-path="url(#clip1_3998_710)">
<path d="M6.04557 0H0.759494C0.340037 0 0 0.340037 0 0.759494V6.04557C0 6.46503 0.340037 6.80506 0.759494 6.80506H6.04557C6.46503 6.80506 6.80506 6.46503 6.80506 6.04557V0.759494C6.80506 0.340037 6.46503 0 6.04557 0Z" fill="black"/>
<path d="M15.2405 0H9.95444C9.53498 0 9.19495 0.340037 9.19495 0.759494V6.04557C9.19495 6.46503 9.53498 6.80506 9.95444 6.80506H15.2405C15.66 6.80506 16 6.46503 16 6.04557V0.759494C16 0.340037 15.66 0 15.2405 0Z" fill="black"/>
<path d="M6.04557 9.19482H0.759494C0.340037 9.19482 0 9.53486 0 9.95432V15.2404C0 15.6599 0.340037 15.9999 0.759494 15.9999H6.04557C6.46503 15.9999 6.80506 15.6599 6.80506 15.2404V9.95432C6.80506 9.53486 6.46503 9.19482 6.04557 9.19482Z" fill="black"/>
<path d="M15.2405 9.19482H9.95444C9.53498 9.19482 9.19495 9.53486 9.19495 9.95432V15.2404C9.19495 15.6599 9.53498 15.9999 9.95444 15.9999H15.2405C15.66 15.9999 16 15.6599 16 15.2404V9.95432C16 9.53486 15.66 9.19482 15.2405 9.19482Z" fill="black"/>
</g>
</g>
<defs>
<clipPath id="clip0_3998_710">
<rect width="16" height="16" fill="white"/>
</clipPath>
<clipPath id="clip1_3998_710">
<rect width="16" height="16" fill="white"/>
</clipPath>
</defs>
</svg>
