<svg width="24" height="24" viewBox="0 0 24 24" fill="none" xmlns="http://www.w3.org/2000/svg">
<g clip-path="url(#clip0_3276_1611)">
<path d="M10.0456 4H4.75949C4.34004 4 4 4.34004 4 4.75949V10.0456C4 10.465 4.34004 10.8051 4.75949 10.8051H10.0456C10.465 10.8051 10.8051 10.465 10.8051 10.0456V4.75949C10.8051 4.34004 10.465 4 10.0456 4Z" fill="black"/>
<path d="M19.2405 4H13.9544C13.535 4 13.1949 4.34004 13.1949 4.75949V10.0456C13.1949 10.465 13.535 10.8051 13.9544 10.8051H19.2405C19.66 10.8051 20 10.465 20 10.0456V4.75949C20 4.34004 19.66 4 19.2405 4Z" fill="black"/>
<path d="M10.0456 13.1953H4.75949C4.34004 13.1953 4 13.5353 4 13.9548V19.2409C4 19.6603 4.34004 20.0004 4.75949 20.0004H10.0456C10.465 20.0004 10.8051 19.6603 10.8051 19.2409V13.9548C10.8051 13.5353 10.465 13.1953 10.0456 13.1953Z" fill="black"/>
<path d="M19.2405 13.1953H13.9544C13.535 13.1953 13.1949 13.5353 13.1949 13.9548V19.2409C13.1949 19.6603 13.535 20.0004 13.9544 20.0004H19.2405C19.66 20.0004 20 19.6603 20 19.2409V13.9548C20 13.5353 19.66 13.1953 19.2405 13.1953Z" fill="black"/>
</g>
<defs>
<clipPath id="clip0_3276_1611">
<rect width="16" height="16" fill="white" transform="translate(4 4)"/>
</clipPath>
</defs>
</svg>
