<svg xmlns="http://www.w3.org/2000/svg" width="24" height="24" viewBox="0 0 24 24" fill="none">
  <path d="M15.9668 4.4502L16.2139 4.45605H16.2148L16.4336 4.4707C16.9409 4.51627 17.4398 4.63583 17.9121 4.82617L18.1406 4.9248C18.5923 5.13282 19.0097 5.40498 19.3799 5.73145L19.5615 5.89941L19.7324 6.07422L19.7334 6.0752L19.877 6.23535C20.2026 6.61629 20.4684 7.04369 20.6641 7.50293L20.7539 7.72949C20.9501 8.2634 21.0498 8.82738 21.0498 9.39551L21.0439 9.6377C21.0195 10.1232 20.9221 10.6028 20.7539 11.0605L20.6641 11.2871C20.4404 11.8121 20.125 12.2957 19.7334 12.7158L19.7324 12.7168L19.5615 12.8916V12.8926L13.2207 19.0586C12.589 19.673 11.587 19.7116 10.9092 19.1738L10.7783 19.0586L4.43848 12.8926C3.48506 11.9652 2.95032 10.7067 2.9502 9.39551L2.95605 9.14941C3.01851 7.92778 3.54501 6.76869 4.43848 5.89941L4.62207 5.72949C5.55464 4.90832 6.76999 4.45028 8.03418 4.4502L8.28711 4.45605C9.54391 4.51685 10.7361 5.03003 11.6299 5.89941L11.7383 6.00391L11.7998 6.05176C11.9432 6.14142 12.1368 6.12524 12.2617 6.00391L12.3691 5.89941L12.3701 5.89844L12.5498 5.73145L12.5508 5.73047L12.7158 5.5918C13.1077 5.2751 13.5472 5.01652 14.0195 4.82617L14.2529 4.73828C14.8018 4.54742 15.3817 4.4502 15.9658 4.4502H15.9668Z" fill="#3C9A17" stroke="#3C9A17" stroke-width="0.1" stroke-linecap="round" stroke-linejoin="round"/>
</svg>