<svg xmlns="http://www.w3.org/2000/svg" width="24" height="24" viewBox="0 0 24 24" fill="none">
  <path d="M15.9668 4.4502L16.2139 4.45605H16.2148L16.4336 4.4707C16.9409 4.51627 17.4398 4.63583 17.9121 4.82617L18.1406 4.9248C18.5923 5.13282 19.0097 5.40498 19.3799 5.73145L19.5615 5.89941L19.7324 6.07422L19.7334 6.0752L19.877 6.23535C20.2026 6.61629 20.4684 7.04369 20.6641 7.50293L20.7539 7.72949C20.9501 8.2634 21.0498 8.82738 21.0498 9.39551L21.0439 9.6377C21.0195 10.1232 20.9221 10.6028 20.7539 11.0605L20.6641 11.2871C20.4404 11.8121 20.125 12.2957 19.7334 12.7158L19.7324 12.7168L19.5615 12.8916V12.8926L13.2207 19.0586C12.589 19.673 11.587 19.7116 10.9092 19.1738L10.7783 19.0586L4.43848 12.8926C3.48506 11.9652 2.95032 10.7067 2.9502 9.39551L2.95605 9.14941C3.01851 7.92778 3.54501 6.76869 4.43848 5.89941L4.62207 5.72949C5.55464 4.90832 6.76999 4.45028 8.03418 4.4502L8.28711 4.45605C9.54391 4.51685 10.7361 5.03003 11.6299 5.89941L11.7383 6.00391L11.7998 6.05176C11.9432 6.14142 12.1368 6.12524 12.2617 6.00391L12.3691 5.89941L12.3701 5.89844L12.5498 5.73145L12.5508 5.73047L12.7158 5.5918C13.1077 5.2751 13.5472 5.01652 14.0195 4.82617L14.2529 4.73828C14.8018 4.54742 15.3817 4.4502 15.9658 4.4502H15.9668ZM15.9648 5.7666C15.5366 5.76667 15.1115 5.8393 14.709 5.97949L14.5381 6.04395C14.1425 6.20341 13.7785 6.4279 13.4619 6.70703L13.3281 6.83105L13.2207 6.93457C12.589 7.54899 11.5879 7.58726 10.9102 7.0498L10.9082 7.04883L10.7803 6.93652L10.7783 6.93457L10.6709 6.83008C10.0153 6.19246 9.14109 5.81698 8.21973 5.77246L8.03418 5.76758C7.10736 5.76766 6.21623 6.10376 5.53223 6.70605L5.39746 6.83008C4.6983 7.51028 4.30474 8.43346 4.30469 9.39551L4.30957 9.5752C4.3554 10.4716 4.74212 11.3223 5.39746 11.96L11.7383 18.1279L11.7969 18.1738C11.9403 18.2654 12.1358 18.2503 12.2617 18.1279L18.6025 11.96L18.7295 11.8301C19.0162 11.5222 19.2473 11.1678 19.4111 10.7832L19.4766 10.6172C19.6207 10.2256 19.6953 9.81226 19.6953 9.39551L19.6904 9.2168C19.6724 8.86052 19.6002 8.5087 19.4766 8.17285L19.4111 8.00684C19.2471 7.62173 19.0157 7.26715 18.7285 6.95898L18.6025 6.83008C18.2997 6.53544 17.9461 6.29405 17.5596 6.11621L17.3916 6.04395C16.9958 5.88446 16.5754 5.79193 16.1484 5.77148V5.77051L15.9648 5.7666Z" fill="black" stroke="black" stroke-width="0.1" stroke-linecap="round" stroke-linejoin="round"/>
</svg>