<svg width="30" height="30" viewBox="0 0 30 30" fill="none" xmlns="http://www.w3.org/2000/svg">
<rect x="0.5" y="0.5" width="29" height="29" rx="14.5" stroke="#767676"/>
<path d="M15.051 8.99902H15.14C15.962 9.00202 20.127 9.03202 21.25 9.33402C21.5895 9.42619 21.8989 9.60585 22.1472 9.85503C22.3955 10.1042 22.574 10.4142 22.665 10.754C22.766 11.134 22.837 11.637 22.885 12.156L22.895 12.26L22.917 12.52L22.925 12.624C22.99 13.538 22.998 14.394 22.999 14.581V14.656C22.998 14.85 22.989 15.764 22.917 16.716L22.909 16.821L22.9 16.925C22.85 17.497 22.776 18.065 22.665 18.483C22.574 18.8228 22.3955 19.1328 22.1472 19.382C21.8989 19.6312 21.5895 19.8109 21.25 19.903C20.09 20.215 15.681 20.237 15.07 20.238H14.928C14.619 20.238 13.341 20.232 12.001 20.186L11.831 20.18L11.744 20.176L11.573 20.169L11.402 20.162C10.292 20.113 9.235 20.034 8.748 19.902C8.40863 19.8099 8.09935 19.6304 7.85105 19.3814C7.60275 19.1324 7.42412 18.8227 7.333 18.483C7.222 18.066 7.148 17.497 7.098 16.925L7.09 16.82L7.082 16.716C7.03236 16.0384 7.00502 15.3594 7 14.68L7 14.557C7.002 14.342 7.01 13.599 7.064 12.779L7.071 12.676L7.074 12.624L7.082 12.52L7.104 12.26L7.114 12.156C7.162 11.637 7.233 11.133 7.334 10.754C7.42497 10.4142 7.60353 10.1042 7.85184 9.85503C8.10015 9.60585 8.40951 9.42619 8.749 9.33402C9.236 9.20402 10.293 9.12402 11.403 9.07402L11.573 9.06702L11.745 9.06102L11.831 9.05802L12.002 9.05102C12.9537 9.02043 13.9058 9.00343 14.858 9.00002L15.051 8.99902ZM13.4 12.209V17.027L17.557 14.619L13.4 12.209Z" fill="#767676"/>
</svg>
