<svg xmlns="http://www.w3.org/2000/svg" width="24" height="24" viewBox="0 0 24 24" fill="none">
  <path d="M19.8842 19H5.21593C4.98625 19 4.80005 19.1321 4.80005 19.295V20.705C4.80005 20.8679 4.98625 21 5.21593 21H19.8842C20.1139 21 20.3 20.8679 20.3 20.705V19.295C20.3 19.1321 20.1139 19 19.8842 19Z" fill="url(#paint0_linear_3225_167)"/>
  <path d="M21.4988 5.97209C20.6671 5.97209 19.9935 6.63711 19.9935 7.45813C19.9935 7.83169 20.1349 8.1642 20.3636 8.42693L16.4671 9.92939C16.2925 9.99507 16.0929 9.94171 15.9806 9.78982L13.0572 5.86535C13.6145 5.64778 14.0095 5.11412 14.0095 4.48604C14.0095 3.66502 13.3358 3 12.5042 3C11.6725 3 10.9988 3.66502 10.9988 4.48604C10.9988 5.11002 11.3897 5.64368 11.9386 5.86125L8.94871 9.79392C8.83644 9.94171 8.63683 9.99507 8.46218 9.92939L4.63644 8.43514C4.86931 8.17241 5.01069 7.8358 5.01069 7.46223C5.01069 6.64121 4.33703 5.97619 3.50535 5.97619C2.67366 5.97619 2 6.64121 2 7.46223C2 8.28325 2.67366 8.94828 3.50535 8.94828C3.54693 8.94828 3.58436 8.94007 3.62178 8.93596L4.70713 17.6388C4.73208 17.844 4.91089 18 5.11881 18H19.8812C20.0891 18 20.2679 17.844 20.2929 17.6388L21.3782 8.93596C21.4198 8.93596 21.4572 8.94828 21.4947 8.94828C22.3263 8.94828 23 8.28325 23 7.46223C23 6.64121 22.3263 5.97619 21.4947 5.97619L21.4988 5.97209ZM14.7289 12.8974L14.0802 13.5993C14.0178 13.665 13.9846 13.7512 13.9846 13.8415L14.1343 14.9622C14.1343 15.2742 13.76 15.4384 13.5271 15.2291L12.7453 14.7036C12.6081 14.5805 12.396 14.5805 12.2547 14.7036L11.477 15.2291C11.2442 15.4384 10.8699 15.2742 10.8699 14.9622L11.0196 13.8415C11.0196 13.7512 10.9863 13.665 10.924 13.5993L10.2752 12.8974C10.0632 12.6675 10.2295 12.298 10.5455 12.298H11.319C11.4521 12.298 11.5727 12.2282 11.635 12.1133L12.1798 11.1486C12.317 10.9023 12.6747 10.9023 12.816 11.1486L13.3608 12.1133C13.4232 12.2282 13.5479 12.298 13.6768 12.298H14.4503C14.7663 12.298 14.9327 12.6675 14.7206 12.8974H14.7289Z" fill="url(#paint1_linear_3225_167)"/>
  <defs>
    <linearGradient id="paint0_linear_3225_167" x1="12.5531" y1="20.9995" x2="12.5531" y2="18.9995" gradientUnits="userSpaceOnUse">
      <stop offset="0.07" stop-color="#28A94C"/>
      <stop offset="0.93" stop-color="#6BCC65"/>
    </linearGradient>
    <linearGradient id="paint1_linear_3225_167" x1="12.5042" y1="17.9959" x2="12.5042" y2="2.9959" gradientUnits="userSpaceOnUse">
      <stop offset="0.07" stop-color="#28A94C"/>
      <stop offset="0.93" stop-color="#6BCC65"/>
    </linearGradient>
  </defs>
</svg>