<svg xmlns="http://www.w3.org/2000/svg" width="24" height="24" viewBox="0 0 24 24" fill="none">
  <path d="M12 2C17.5228 2 22 6.47715 22 12C22 14.0307 21.3926 15.9187 20.3525 17.4961L20.9502 19.7256C21.149 20.4688 20.4688 21.149 19.7256 20.9502L17.4961 20.3525C15.9187 21.3926 14.0307 22 12 22C6.47715 22 2 17.5228 2 12C2 6.47715 6.47715 2 12 2Z" fill="#474C98"/>
  <path d="M7 11C7.55228 11 8 11.4477 8 12C8 12.5523 7.55228 13 7 13C6.44772 13 6 12.5523 6 12C6 11.4477 6.44772 11 7 11Z" fill="white"/>
  <path d="M12 11C12.5523 11 13 11.4477 13 12C13 12.5523 12.5523 13 12 13C11.4477 13 11 12.5523 11 12C11 11.4477 11.4477 11 12 11Z" fill="white"/>
  <path d="M17 11C17.5523 11 18 11.4477 18 12C18 12.5523 17.5523 13 17 13C16.4477 13 16 12.5523 16 12C16 11.4477 16.4477 11 17 11Z" fill="white"/>
</svg>