<svg xmlns="http://www.w3.org/2000/svg" width="24" height="24" viewBox="0 0 24 24" fill="none">
  <path d="M7.53001 6.52985C7.66249 6.38767 7.73461 6.19963 7.73119 6.00532C7.72776 5.81102 7.64905 5.62564 7.51163 5.48822C7.37422 5.35081 7.18884 5.2721 6.99453 5.26867C6.80023 5.26524 6.61219 5.33737 6.47001 5.46985L4.47001 7.46985C4.32956 7.61047 4.25067 7.8011 4.25067 7.99985C4.25067 8.1986 4.32956 8.38922 4.47001 8.52985L6.47001 10.5298C6.53867 10.6035 6.62147 10.6626 6.71347 10.7036C6.80547 10.7446 6.90479 10.7667 7.00549 10.7684C7.10619 10.7702 7.20622 10.7517 7.29961 10.714C7.393 10.6762 7.47783 10.6201 7.54905 10.5489C7.62027 10.4777 7.67641 10.3928 7.71413 10.2994C7.75186 10.2061 7.77038 10.106 7.7686 10.0053C7.76683 9.90462 7.74478 9.80531 7.70379 9.71331C7.6628 9.62131 7.6037 9.53851 7.53001 9.46985L6.81001 8.74985H17C17.1989 8.74985 17.3897 8.67083 17.5303 8.53018C17.671 8.38952 17.75 8.19876 17.75 7.99985C17.75 7.80093 17.671 7.61017 17.5303 7.46952C17.3897 7.32886 17.1989 7.24985 17 7.24985H6.81001L7.53001 6.52985ZM16.47 13.4698C16.3296 13.6105 16.2507 13.8011 16.2507 13.9998C16.2507 14.1986 16.3296 14.3892 16.47 14.5298L17.19 15.2498H7.00001C6.8011 15.2498 6.61033 15.3289 6.46968 15.4695C6.32903 15.6102 6.25001 15.8009 6.25001 15.9998C6.25001 16.1988 6.32903 16.3895 6.46968 16.5302C6.61033 16.6708 6.8011 16.7498 7.00001 16.7498H17.19L16.47 17.4698C16.3963 17.5385 16.3372 17.6213 16.2962 17.7133C16.2552 17.8053 16.2332 17.9046 16.2314 18.0053C16.2296 18.106 16.2482 18.2061 16.2859 18.2994C16.3236 18.3928 16.3798 18.4777 16.451 18.5489C16.5222 18.6201 16.607 18.6762 16.7004 18.714C16.7938 18.7517 16.8938 18.7702 16.9945 18.7684C17.0952 18.7667 17.1946 18.7446 17.2866 18.7036C17.3785 18.6626 17.4614 18.6035 17.53 18.5298L19.53 16.5298C19.6705 16.3892 19.7494 16.1986 19.7494 15.9998C19.7494 15.8011 19.6705 15.6105 19.53 15.4698L17.53 13.4698C17.3894 13.3294 17.1988 13.2505 17 13.2505C16.8013 13.2505 16.6106 13.3294 16.47 13.4698Z" fill="#474C98"/>
</svg>