<svg width="30" height="30" viewBox="0 0 30 30" fill="none" xmlns="http://www.w3.org/2000/svg">
<rect x="0.5" y="0.5" width="29" height="29" rx="14.5" stroke="#767676"/>
<g clip-path="url(#clip0_3252_852)">
<path d="M23 15.049C23 10.603 19.418 6.99902 15 6.99902C10.58 7.00002 6.99799 10.603 6.99799 15.05C6.99799 19.067 9.92399 22.397 13.748 23.001V17.376H11.718V15.05H13.75V13.275C13.75 11.258 14.945 10.144 16.772 10.144C17.648 10.144 18.563 10.301 18.563 10.301V12.281H17.554C16.561 12.281 16.251 12.902 16.251 13.539V15.049H18.469L18.115 17.375H16.25V23C20.074 22.396 23 19.066 23 15.049Z" fill="#767676"/>
</g>
<defs>
<clipPath id="clip0_3252_852">
<rect width="16" height="16" fill="white" transform="translate(7 7)"/>
</clipPath>
</defs>
</svg>
