<svg xmlns="http://www.w3.org/2000/svg" width="24" height="24" viewBox="0 0 24 24" fill="none">
  <path d="M14.0822 17.2041C14.4854 17.2453 14.7999 17.5859 14.7999 18C14.7999 18.4141 14.4854 18.7547 14.0822 18.7959L14.0001 18.7998H10.0001C9.55831 18.7998 9.20033 18.4418 9.20033 18C9.20033 17.5582 9.55831 17.2002 10.0001 17.2002H14.0001L14.0822 17.2041Z" fill="black"/>
  <path fill-rule="evenodd" clip-rule="evenodd" d="M12.0792 2.95117C12.104 2.95363 12.129 2.95422 12.1535 2.95898C12.1668 2.96159 12.1802 2.96448 12.1935 2.96777C12.2053 2.9707 12.217 2.97407 12.2287 2.97754C12.2444 2.98223 12.26 2.98749 12.2755 2.99316C12.2821 2.99557 12.2885 2.99839 12.2951 3.00098C12.3381 3.01804 12.38 3.03868 12.4201 3.06348C12.4256 3.06694 12.4311 3.07061 12.4367 3.07422C12.4482 3.08174 12.4596 3.08948 12.4708 3.09766C12.4828 3.10637 12.4945 3.11554 12.506 3.125C12.5136 3.13127 12.521 3.13794 12.5285 3.14453C12.5389 3.15371 12.5497 3.16304 12.5597 3.17285L22.0597 12.4844C22.375 12.7936 22.3805 13.2998 22.0714 13.6152C21.7623 13.9305 21.2561 13.9356 20.9406 13.627L20.0001 12.7051V20L19.9894 20.2041C19.8939 21.1455 19.1457 21.8937 18.2042 21.9893L18.0001 22H6.00014L5.79604 21.9893C4.85453 21.8938 4.10639 21.1456 4.01088 20.2041L4.00014 20V12.7051L3.05971 13.627C2.74423 13.9357 2.23801 13.9304 1.92885 13.6152C1.61967 13.2997 1.62514 12.7936 1.94057 12.4844L11.4406 3.17285C11.446 3.16755 11.4516 3.16234 11.4572 3.15723C11.471 3.14444 11.4847 3.13175 11.4992 3.12012C11.5042 3.11603 11.5096 3.11234 11.5148 3.1084C11.5302 3.09658 11.5456 3.08476 11.5617 3.07422C11.5684 3.06981 11.5753 3.06571 11.5822 3.06152C11.6213 3.03752 11.6623 3.01764 11.7042 3.00098C11.711 2.99827 11.7179 2.99567 11.7247 2.99316C11.74 2.9876 11.7552 2.98215 11.7706 2.97754C11.7823 2.97406 11.794 2.97071 11.8058 2.96777C11.8191 2.96447 11.8325 2.9616 11.8458 2.95898C11.87 2.95427 11.8947 2.95365 11.9191 2.95117C11.9458 2.94846 11.9723 2.94535 11.9992 2.94531C12.026 2.94529 12.0525 2.94851 12.0792 2.95117ZM5.59975 11.1367V20C5.59981 20.2209 5.77926 20.3994 6.00014 20.3994H18.0001C18.2209 20.3993 18.4005 20.2208 18.4005 20V11.1367L12.0001 4.86328L5.59975 11.1367Z" fill="black"/>
</svg>