<svg xmlns="http://www.w3.org/2000/svg" width="24" height="24" viewBox="0 0 24 24" fill="none">
  <path d="M12.4414 21.167C12.1737 21.3441 11.8263 21.3441 11.5586 21.167L12 20.5L12.4414 21.167ZM18.1924 10.1494C18.1164 8.62978 17.4752 7.18688 16.3857 6.10449C15.2234 4.94975 13.646 4.2998 12 4.2998C10.354 4.2998 8.77658 4.94975 7.61426 6.10449C6.45221 7.259 5.79992 8.82366 5.7998 10.4541L5.80469 10.6777C5.8979 12.9798 7.41433 15.2072 9.0791 16.9531C9.92161 17.8367 10.7667 18.5606 11.4023 19.0635C11.6331 19.246 11.8367 19.3975 12 19.5176C12.1633 19.3975 12.3669 19.246 12.5977 19.0635C13.2333 18.5606 14.0784 17.8367 14.9209 16.9531C16.6394 15.1509 18.2002 12.8351 18.2002 10.4541L18.1924 10.1494ZM19.7939 10.7373C19.6786 13.6508 17.8048 16.2478 16.0791 18.0576C15.1717 19.0092 14.2667 19.7829 13.5898 20.3184C13.2509 20.5865 12.9679 20.7967 12.7676 20.9404C12.6675 21.0123 12.5876 21.0674 12.5322 21.1055C12.5047 21.1244 12.483 21.1392 12.4678 21.1494C12.4602 21.1545 12.4535 21.1592 12.4492 21.1621C12.4473 21.1634 12.4456 21.1642 12.4443 21.165L12.4424 21.166V21.167L12 20.5L11.5576 21.167V21.166L11.5557 21.165C11.5544 21.1642 11.5527 21.1634 11.5508 21.1621C11.5465 21.1592 11.5398 21.1545 11.5322 21.1494C11.517 21.1392 11.4953 21.1244 11.4678 21.1055C11.4124 21.0674 11.3325 21.0123 11.2324 20.9404C11.0321 20.7967 10.7491 20.5865 10.4102 20.3184C9.7333 19.7829 8.82828 19.0092 7.9209 18.0576C6.19517 16.2478 4.32145 13.6508 4.20605 10.7373L4.2002 10.4541C4.20031 8.39603 5.0232 6.42346 6.48633 4.96973C7.94951 3.51605 9.93299 2.7002 12 2.7002C14.067 2.7002 16.0505 3.51605 17.5137 4.96973C18.9768 6.42346 19.7997 8.39603 19.7998 10.4541L19.7939 10.7373Z" fill="black"/>
  <path d="M14.2002 10.5C14.2002 9.28497 13.215 8.2998 12 8.2998C10.785 8.2998 9.7998 9.28497 9.7998 10.5C9.7998 11.715 10.785 12.7002 12 12.7002C13.215 12.7002 14.2002 11.715 14.2002 10.5ZM15.7998 10.5C15.7998 12.5987 14.0987 14.2998 12 14.2998C9.90132 14.2998 8.2002 12.5987 8.2002 10.5C8.2002 8.40132 9.90132 6.7002 12 6.7002C14.0987 6.7002 15.7998 8.40132 15.7998 10.5Z" fill="black"/>
</svg>