<svg xmlns="http://www.w3.org/2000/svg" width="24" height="24" viewBox="0 0 24 24" fill="none">
  <path d="M17 3C19.2091 3 21 4.79086 21 7C21 9.20914 19.2091 11 17 11C15.594 11 14.3588 10.2737 13.6455 9.17676L10.7549 10.6221C10.9126 11.0518 11 11.5156 11 12C11 12.7576 10.7887 13.4655 10.4229 14.0693L13.29 15.5029C13.8827 14.0355 15.3203 13 17 13C19.2091 13 21 14.7909 21 17C21 19.2091 19.2091 21 17 21C14.7909 21 13 19.2091 13 17C13 16.9008 13.0036 16.8025 13.0107 16.7051L9.62793 15.0137C8.92493 15.6272 8.00637 16 7 16C4.79086 16 3 14.2091 3 12C3 9.79086 4.79086 8 7 8C8.29456 8 9.4447 8.61558 10.1758 9.56934L13.1494 8.08301C13.0527 7.73848 13 7.37542 13 7C13 4.79086 14.7909 3 17 3ZM17 14.2002C15.4536 14.2002 14.2002 15.4536 14.2002 17C14.2002 18.5464 15.4536 19.7998 17 19.7998C18.5464 19.7998 19.7998 18.5464 19.7998 17C19.7998 15.4536 18.5464 14.2002 17 14.2002ZM7 9.2002C5.4536 9.2002 4.2002 10.4536 4.2002 12C4.2002 13.5464 5.4536 14.7998 7 14.7998C8.5464 14.7998 9.7998 13.5464 9.7998 12C9.7998 10.4536 8.5464 9.2002 7 9.2002ZM17 4.2002C15.4536 4.2002 14.2002 5.4536 14.2002 7C14.2002 8.5464 15.4536 9.7998 17 9.7998C18.5464 9.7998 19.7998 8.5464 19.7998 7C19.7998 5.4536 18.5464 4.2002 17 4.2002Z" fill="black"/>
</svg>