<svg xmlns="http://www.w3.org/2000/svg" width="24" height="24" viewBox="0 0 24 24" fill="none">
  <path fill-rule="evenodd" clip-rule="evenodd" d="M5.30329 5.30312C8.23221 2.3742 12.9808 2.37424 15.9097 5.30312C18.6471 8.04051 18.8252 12.3666 16.4459 15.3119L20.6597 19.5258C20.9722 19.8382 20.9722 20.3452 20.6597 20.6576C20.3474 20.9697 19.8413 20.9697 19.5289 20.6576L15.315 16.4437C12.3697 18.8254 8.04153 18.6478 5.30329 15.9096C2.37442 12.9806 2.37439 8.23203 5.30329 5.30312ZM14.7789 6.43398C12.4748 4.12994 8.73823 4.1299 6.43415 6.43398C4.13009 8.73805 4.13012 12.4746 6.43415 14.7787C8.73824 17.0828 12.4748 17.0828 14.7789 14.7787C17.083 12.4746 17.083 8.73807 14.7789 6.43398Z" fill="black"/>
</svg>